<?xml version="1.0" encoding="UTF-8" ?>
<!DOCTYPE svg PUBLIC "-//W3C//DTD SVG 1.1//EN" "http://www.w3.org/Graphics/SVG/1.1/DTD/svg11.dtd">
<svg width="400pt" height="400pt" viewBox="0 0 400 400" version="1.1" xmlns="http://www.w3.org/2000/svg">
<g id="#9b9d9fff">
<path fill="#9b9d9f" opacity="1.00" d=" M 251.10 4.19 C 256.75 3.29 262.56 3.28 268.18 4.35 C 273.80 5.28 278.73 8.34 283.59 11.12 C 284.19 11.72 285.39 12.92 285.99 13.52 C 278.42 12.18 270.66 12.09 263.10 13.56 C 195.38 22.76 127.68 32.10 59.95 41.17 C 59.12 72.29 59.79 103.44 59.05 134.56 C 53.84 131.58 48.35 129.03 43.30 125.79 C 42.93 97.89 43.51 69.97 43.44 42.06 C 43.49 38.95 43.08 35.80 43.66 32.73 C 46.41 31.89 49.31 31.72 52.15 31.32 C 118.46 22.26 184.78 13.24 251.10 4.19 Z" />
<path fill="#9b9d9f" opacity="1.00" d=" M 282.67 6.57 C 290.41 8.73 297.30 13.10 304.20 17.09 C 302.32 16.66 300.43 16.30 298.55 15.93 C 301.58 20.03 304.28 24.74 303.95 30.03 C 303.76 42.88 296.15 53.92 289.28 64.19 C 289.09 71.63 293.41 78.48 293.72 85.95 C 295.35 101.33 284.02 116.50 269.19 120.19 C 262.31 121.76 255.11 120.07 249.43 115.96 C 228.09 144.89 206.47 173.64 186.38 203.46 C 178.79 214.73 171.77 227.11 170.47 240.89 C 169.07 254.33 174.77 268.22 185.05 276.95 C 186.27 278.00 187.29 279.25 188.20 280.58 C 177.43 275.53 166.76 269.05 160.32 258.71 C 159.64 256.53 159.53 254.22 159.95 251.98 C 161.92 239.28 167.09 227.33 173.04 216.02 C 186.52 190.81 203.93 168.00 221.24 145.33 C 228.37 136.11 235.63 126.99 242.86 117.85 C 244.96 115.27 246.83 111.89 250.55 111.60 C 263.75 110.06 274.21 98.74 277.20 86.16 C 278.39 82.15 277.95 77.92 277.41 73.84 C 282.87 66.07 288.79 58.56 293.06 50.03 C 297.20 42.63 300.98 34.12 299.32 25.47 C 297.95 19.06 291.75 15.66 286.07 13.66 C 285.58 12.59 285.08 11.53 284.56 10.48 C 283.83 9.20 281.97 8.36 282.67 6.57 Z" />
<path fill="#9b9d9f" opacity="1.00" d=" M 184.49 76.39 C 190.98 75.05 199.34 75.24 202.85 81.92 C 191.25 99.43 179.00 116.50 166.31 133.24 C 158.48 143.67 149.77 153.43 142.22 164.08 C 129.34 182.13 117.70 201.10 107.90 221.00 C 99.74 237.72 92.44 255.30 90.54 273.97 C 89.55 289.03 89.71 304.40 93.76 319.04 C 98.31 336.67 108.59 352.68 122.57 364.33 C 126.03 367.33 130.05 369.63 133.27 372.92 C 113.44 363.82 95.46 349.27 85.10 329.79 C 76.23 313.42 73.35 294.48 73.73 276.06 C 73.99 267.50 74.55 258.88 76.78 250.58 C 81.46 232.39 89.68 215.36 98.59 198.91 C 109.60 179.03 122.02 159.88 136.18 142.09 C 144.95 131.54 153.22 120.57 161.31 109.48 C 163.02 107.13 164.86 104.85 166.16 102.24 C 165.39 101.27 164.33 100.47 163.85 99.30 C 162.16 93.24 161.12 87.01 159.11 81.05 C 162.41 79.84 165.91 79.48 169.38 79.25 C 172.85 80.30 175.91 82.22 179.11 83.85 C 181.40 81.81 182.74 78.89 184.49 76.39 M 176.10 89.32 C 177.08 95.68 179.02 101.84 180.39 108.12 C 184.45 102.70 188.86 97.41 192.00 91.40 C 187.37 88.03 181.44 87.91 176.10 89.32 Z" />
<path fill="#9b9d9f" opacity="1.00" d=" M 287.80 280.72 C 292.52 278.22 296.89 275.14 301.49 272.45 C 297.82 292.19 289.38 311.71 274.57 325.66 C 259.30 340.06 237.78 346.88 216.98 345.68 C 204.18 344.77 190.86 341.41 180.78 333.10 C 203.17 340.14 228.74 337.49 248.52 324.57 C 262.53 315.54 272.73 301.49 278.79 286.11 C 281.38 283.69 284.73 282.40 287.80 280.72 Z" />
</g>
<g id="#e2dfe2ff">
<path fill="#e2dfe2" opacity="1.00" d=" M 283.59 11.12 L 284.56 10.48 C 285.08 11.53 285.58 12.59 286.07 13.66 C 291.75 15.66 297.95 19.06 299.32 25.47 C 300.98 34.12 297.20 42.63 293.06 50.03 C 288.79 58.56 282.87 66.07 277.41 73.84 C 277.95 77.92 278.39 82.15 277.20 86.16 C 277.38 83.11 277.43 80.03 277.23 76.98 C 275.60 75.53 274.77 77.98 273.77 78.79 C 265.88 89.39 257.32 99.47 249.53 110.13 C 249.78 110.50 250.29 111.23 250.55 111.60 C 246.83 111.89 244.96 115.27 242.86 117.85 C 235.63 126.99 228.37 136.11 221.24 145.33 C 203.93 168.00 186.52 190.81 173.04 216.02 C 167.09 227.33 161.92 239.28 159.95 251.98 C 159.53 254.22 159.64 256.53 160.32 258.71 C 159.21 259.95 159.12 261.67 158.86 263.24 C 157.14 279.26 157.68 296.02 164.03 311.05 C 167.64 319.64 173.24 327.54 180.78 333.10 C 190.86 341.41 204.18 344.77 216.98 345.68 C 237.78 346.88 259.30 340.06 274.57 325.66 C 289.38 311.71 297.82 292.19 301.49 272.45 C 296.89 275.14 292.52 278.22 287.80 280.72 C 284.73 282.40 281.38 283.69 278.79 286.11 C 273.07 287.38 267.91 290.43 262.16 291.68 C 237.43 299.56 210.00 293.92 188.20 280.58 C 187.29 279.25 186.27 278.00 185.05 276.95 C 174.77 268.22 169.07 254.33 170.47 240.89 C 171.77 227.11 178.79 214.73 186.38 203.46 C 206.47 173.64 228.09 144.89 249.43 115.96 C 255.11 120.07 262.31 121.76 269.19 120.19 C 284.02 116.50 295.35 101.33 293.72 85.95 C 293.41 78.48 289.09 71.63 289.28 64.19 C 296.15 53.92 303.76 42.88 303.95 30.03 C 304.28 24.74 301.58 20.03 298.55 15.93 C 300.43 16.30 302.32 16.66 304.20 17.09 C 319.83 24.62 335.04 36.75 339.88 54.11 C 342.38 61.44 342.55 69.32 342.40 76.99 C 341.89 89.93 338.18 103.03 330.30 113.45 C 325.61 120.93 319.27 127.18 312.69 132.98 C 316.94 135.37 321.20 137.85 324.71 141.30 C 334.90 150.19 341.67 162.40 345.87 175.14 C 350.40 188.97 351.59 203.56 353.05 217.95 C 354.30 236.95 354.48 256.29 349.86 274.89 C 345.23 292.96 337.65 310.44 326.67 325.59 C 305.90 354.11 275.29 374.61 242.07 385.86 C 235.82 388.58 229.05 389.58 222.47 391.20 C 216.12 392.73 209.53 392.34 203.09 393.21 C 195.63 392.50 188.02 392.88 180.69 391.05 C 163.99 388.50 148.32 381.64 133.73 373.35 L 133.27 372.92 C 130.05 369.63 126.03 367.33 122.57 364.33 C 108.59 352.68 98.31 336.67 93.76 319.04 C 89.71 304.40 89.55 289.03 90.54 273.97 C 92.44 255.30 99.74 237.72 107.90 221.00 C 117.70 201.10 129.34 182.13 142.22 164.08 C 149.77 153.43 158.48 143.67 166.31 133.24 C 179.00 116.50 191.25 99.43 202.85 81.92 C 199.34 75.24 190.98 75.05 184.49 76.39 C 179.43 77.21 174.36 78.01 169.38 79.25 C 165.91 79.48 162.41 79.84 159.11 81.05 C 137.80 85.64 116.27 89.31 94.96 93.92 C 80.54 101.43 68.15 115.56 67.45 132.45 C 64.90 133.87 61.83 133.80 59.05 134.56 C 59.79 103.44 59.12 72.29 59.95 41.17 C 127.68 32.10 195.38 22.76 263.10 13.56 C 270.66 12.09 278.42 12.18 285.99 13.52 C 285.39 12.92 284.19 11.72 283.59 11.12 M 264.49 179.71 C 259.80 181.01 255.67 183.85 252.35 187.35 C 240.04 200.59 239.10 222.38 249.00 237.26 C 253.83 244.53 262.05 250.17 271.05 249.81 C 277.07 249.94 282.67 246.94 287.20 243.22 C 302.65 228.84 302.99 201.71 288.41 186.60 C 282.31 180.46 272.98 177.06 264.49 179.71 Z" />
<path fill="#e2dfe2" opacity="1.00" d=" M 176.10 89.32 C 181.44 87.91 187.37 88.03 192.00 91.40 C 188.86 97.41 184.45 102.70 180.39 108.12 C 179.02 101.84 177.08 95.68 176.10 89.32 Z" />
</g>
</svg>
