<?xml version="1.0" encoding="UTF-8" ?>
<!DOCTYPE svg PUBLIC "-//W3C//DTD SVG 1.1//EN" "http://www.w3.org/Graphics/SVG/1.1/DTD/svg11.dtd">
<svg width="1092pt" height="1024pt" viewBox="0 0 1092 1024" version="1.1" xmlns="http://www.w3.org/2000/svg">
<g id="#a09da2fd">
<path fill="#a09da2" opacity="1.00" d=" M 843.13 22.31 C 852.34 22.64 861.60 21.93 870.82 22.51 C 875.70 24.24 880.92 24.35 885.87 25.84 C 897.25 28.37 906.96 35.19 917.23 40.36 L 918.40 40.35 C 918.84 37.86 915.82 36.43 914.57 34.54 C 914.54 34.02 914.46 32.97 914.42 32.44 C 915.81 31.63 917.17 30.11 918.96 30.70 C 931.35 34.43 942.45 41.27 953.84 47.23 C 960.35 51.60 967.92 54.03 974.37 58.50 C 982.93 63.21 991.73 67.60 999.52 73.55 C 1006.94 79.03 1014.59 84.33 1020.89 91.12 C 1024.29 94.69 1027.94 98.02 1031.31 101.63 C 1036.78 108.64 1041.36 116.28 1046.31 123.65 C 1049.08 127.63 1050.21 132.38 1051.80 136.89 C 1054.12 144.19 1056.87 151.39 1058.15 158.98 C 1059.06 165.62 1059.50 172.32 1060.42 178.96 C 1060.34 189.96 1061.19 201.06 1059.49 211.98 C 1058.16 223.81 1056.36 235.65 1052.70 247.00 C 1049.79 253.92 1047.33 261.04 1043.96 267.76 C 1041.15 274.88 1036.38 280.98 1032.16 287.30 C 1020.66 304.60 1006.88 320.55 990.53 333.41 C 990.44 333.94 990.27 335.01 990.19 335.54 C 1000.85 341.19 1011.30 347.55 1019.96 356.05 C 1029.61 365.45 1038.24 375.90 1045.74 387.10 C 1052.08 397.70 1058.32 408.45 1062.79 420.01 C 1066.89 431.52 1072.12 442.80 1074.02 454.93 C 1076.11 459.91 1075.74 465.47 1077.36 470.60 C 1079.46 483.02 1082.32 495.37 1082.81 508.00 C 1083.32 515.02 1084.77 521.96 1084.59 529.02 C 1085.38 526.46 1085.04 523.75 1085.60 521.18 C 1085.55 527.12 1085.14 533.11 1086.02 539.03 C 1086.68 543.38 1086.04 547.83 1086.85 552.17 C 1087.69 556.19 1087.31 560.32 1087.53 564.39 C 1087.51 570.60 1088.86 576.79 1088.02 583.01 C 1087.22 588.66 1087.96 594.34 1088.20 600.00 C 1087.41 606.98 1087.87 614.03 1087.22 621.03 C 1086.44 626.30 1085.62 631.59 1085.52 636.93 C 1085.71 643.43 1083.21 649.59 1082.75 656.04 C 1082.61 661.12 1080.44 665.86 1080.39 670.96 C 1078.11 678.64 1076.19 686.45 1073.96 694.17 C 1072.62 701.42 1068.68 707.84 1066.74 714.91 C 1064.20 723.85 1059.88 732.10 1056.39 740.67 C 1053.84 746.29 1051.63 752.09 1048.30 757.31 C 1044.07 765.40 1039.94 773.57 1035.05 781.29 C 1028.81 789.46 1023.78 798.45 1017.57 806.60 C 1011.02 814.71 1003.84 822.27 997.45 830.52 C 992.98 836.62 986.73 841.00 981.61 846.50 C 973.83 853.08 967.36 861.15 958.98 867.01 C 953.10 871.45 947.99 876.85 941.64 880.65 C 936.24 885.36 930.37 889.50 924.18 893.11 C 914.18 899.44 904.22 905.81 894.16 912.05 C 885.69 916.45 877.01 920.43 868.36 924.47 C 863.11 927.57 857.45 929.85 852.14 932.83 C 847.77 935.21 842.79 936.00 838.25 937.97 C 827.64 942.16 816.70 945.46 806.18 949.82 C 792.55 953.46 778.79 956.48 764.99 959.38 C 759.43 959.90 753.88 960.51 748.30 960.77 C 743.26 961.99 738.05 961.20 732.98 962.06 C 720.65 963.73 708.32 961.30 695.98 961.42 C 690.89 960.47 685.67 960.76 680.59 959.72 C 675.44 959.09 670.43 957.58 665.25 957.17 C 660.16 956.35 655.25 954.47 650.04 954.37 C 642.30 952.53 634.93 949.42 627.27 947.24 C 619.65 944.89 612.04 942.41 604.76 939.13 C 593.39 933.47 581.20 929.40 570.47 922.51 C 563.97 918.87 557.49 915.19 550.72 912.08 C 548.16 910.67 545.24 909.82 543.12 907.75 C 545.80 908.83 548.50 910.02 551.43 910.24 C 560.20 914.86 569.02 919.40 577.51 924.51 C 589.26 929.72 600.85 935.29 612.64 940.40 C 623.29 943.62 633.82 947.22 644.42 950.57 C 655.82 952.38 666.94 955.88 678.47 956.90 C 685.60 960.19 693.50 958.59 701.03 959.71 C 707.22 960.55 713.49 960.02 719.70 960.69 C 726.15 961.41 732.58 960.03 738.97 959.25 C 745.25 958.04 751.67 958.47 758.03 958.42 C 762.74 958.47 767.19 956.73 771.75 955.80 C 780.43 953.96 789.04 951.86 797.70 949.96 C 809.81 947.23 820.98 941.60 832.76 937.82 C 841.34 934.44 850.32 931.98 858.47 927.55 C 868.30 922.72 878.07 917.74 887.94 912.96 C 897.29 908.74 905.43 902.40 914.24 897.21 C 920.70 893.01 927.48 889.26 933.71 884.71 C 938.56 880.48 944.23 877.34 948.99 873.01 C 954.87 867.83 961.19 863.20 967.22 858.21 C 975.58 850.24 983.61 841.94 991.91 833.91 C 996.56 829.50 1000.18 824.18 1004.44 819.42 C 1017.20 805.78 1026.98 789.76 1037.27 774.27 C 1041.52 765.61 1046.43 757.29 1050.72 748.64 C 1054.27 739.99 1058.26 731.53 1061.84 722.89 C 1065.76 711.65 1070.46 700.65 1073.15 689.02 C 1076.60 677.77 1078.74 666.20 1080.91 654.67 C 1081.88 651.16 1082.49 647.56 1082.43 643.92 C 1082.36 638.15 1084.63 632.67 1084.69 626.92 C 1084.83 615.60 1086.89 604.32 1085.97 593.00 C 1085.47 587.65 1086.48 582.33 1086.36 577.00 C 1086.24 568.96 1084.54 561.01 1084.83 552.96 C 1085.01 546.56 1084.84 540.11 1083.35 533.85 C 1081.64 526.90 1082.97 519.65 1081.39 512.67 C 1079.80 505.66 1080.46 498.35 1078.75 491.37 C 1077.10 485.92 1077.59 480.12 1075.76 474.71 C 1075.26 467.41 1073.15 460.40 1071.67 453.27 C 1069.20 443.28 1066.11 433.45 1062.12 423.96 C 1052.14 397.78 1036.77 372.98 1014.85 355.16 C 1009.91 350.68 1004.96 346.12 999.16 342.76 C 996.03 340.81 992.62 339.37 989.49 337.44 C 988.12 336.89 987.87 335.43 987.86 334.14 C 989.79 331.32 992.90 329.68 995.36 327.38 C 1006.49 316.79 1017.40 305.79 1026.05 293.03 C 1030.52 285.89 1035.75 279.24 1040.01 271.96 C 1042.94 266.35 1044.96 260.33 1047.74 254.65 C 1052.01 245.50 1052.83 235.32 1055.84 225.79 C 1056.73 219.23 1057.76 212.66 1058.29 206.06 C 1058.48 196.37 1058.29 186.67 1058.37 176.97 C 1058.51 170.27 1056.27 163.86 1055.73 157.23 C 1055.28 151.26 1052.42 145.91 1050.71 140.27 C 1048.57 134.28 1046.98 127.98 1043.51 122.58 C 1040.86 118.28 1037.79 114.26 1035.11 109.98 C 1031.20 103.09 1024.65 98.38 1019.40 92.60 C 1004.59 76.55 985.03 66.18 966.05 55.94 C 962.47 53.73 957.90 53.38 955.01 50.10 C 942.68 43.14 930.08 36.58 916.64 32.00 C 917.16 36.99 922.93 39.25 923.42 44.38 C 918.66 44.28 914.85 41.25 910.82 39.15 C 903.99 35.51 897.34 31.33 889.88 29.10 C 876.63 25.33 862.70 24.16 848.98 25.31 C 828.62 28.51 808.10 30.73 787.73 33.89 C 765.91 36.53 744.19 39.93 722.37 42.62 C 718.28 43.41 714.16 44.13 710.00 44.37 C 704.82 44.67 699.80 46.08 694.64 46.57 C 686.50 47.15 678.55 49.11 670.40 49.63 C 661.57 51.52 652.51 51.70 643.66 53.49 C 635.00 54.09 626.55 56.23 617.89 56.86 C 608.97 58.61 599.86 58.93 590.95 60.72 C 582.86 61.17 574.99 63.29 566.91 63.79 C 505.55 72.29 444.18 80.59 382.80 88.97 C 377.85 90.05 372.75 90.04 367.77 90.90 C 359.20 92.70 350.39 92.84 341.84 94.69 L 341.20 95.18 C 341.60 126.78 341.04 158.39 341.08 190.00 C 340.38 205.31 341.25 220.65 340.37 235.95 C 340.47 257.97 340.13 279.98 340.22 302.00 C 340.31 306.91 339.22 311.85 340.03 316.73 C 351.66 324.25 364.44 329.92 376.25 337.19 C 381.57 337.74 386.58 335.48 391.78 334.78 C 393.32 334.23 396.06 334.62 396.30 332.44 C 397.72 325.33 397.72 317.93 400.06 311.00 C 407.26 286.94 424.47 267.13 444.17 252.16 C 451.10 247.35 457.73 241.66 465.87 239.04 C 474.04 237.46 482.33 236.29 490.28 233.78 C 495.95 233.41 501.32 231.40 506.98 231.00 C 513.48 229.93 519.94 228.50 526.29 226.76 C 533.02 226.16 539.61 224.64 546.20 223.22 C 549.66 221.84 553.32 221.28 557.04 221.21 C 563.54 220.17 570.01 218.78 576.28 216.73 C 583.15 216.32 589.83 214.60 596.63 213.59 C 602.33 211.99 608.31 211.70 613.98 209.96 C 615.95 209.20 617.97 210.02 619.89 210.51 C 624.49 224.45 626.88 239.02 630.85 253.14 C 631.52 256.56 634.67 258.40 637.21 260.36 C 636.25 263.12 634.49 265.46 632.71 267.73 C 610.75 298.22 588.26 328.35 564.23 357.24 C 542.39 384.53 522.50 413.32 503.78 442.82 C 482.32 477.25 462.37 512.69 445.72 549.71 C 438.57 566.61 431.12 583.48 426.12 601.19 C 421.83 615.20 418.47 629.49 416.30 643.98 C 415.78 648.99 415.79 654.04 415.21 659.04 C 413.80 669.63 413.88 680.34 413.88 691.00 C 413.86 699.27 414.18 707.55 415.35 715.75 C 416.96 741.11 422.60 766.25 432.13 789.82 C 444.19 819.29 463.28 845.76 487.01 866.95 C 498.36 877.14 510.68 886.27 523.63 894.32 C 529.79 898.30 536.66 901.32 542.21 906.16 C 539.44 905.27 536.74 904.17 534.16 902.84 C 521.39 895.62 509.14 887.48 497.65 878.34 C 486.88 869.50 476.11 860.46 467.31 849.58 C 456.20 837.29 446.77 823.53 438.97 808.94 C 430.59 794.24 425.17 778.11 420.44 761.93 C 418.69 752.33 415.29 742.96 415.19 733.13 C 415.03 729.04 414.25 725.02 413.73 720.98 C 412.04 698.27 412.43 675.46 413.57 652.74 C 414.06 648.10 415.23 643.55 415.25 638.87 C 416.19 627.06 420.10 615.73 422.75 604.23 C 432.87 572.86 446.24 542.60 461.33 513.31 C 490.12 458.34 523.61 405.74 562.11 357.04 C 585.89 328.62 607.95 298.81 629.72 268.83 C 631.37 266.56 632.87 264.19 634.49 261.90 C 633.00 259.34 630.58 257.49 629.09 254.96 C 627.73 251.54 627.67 247.77 626.47 244.31 C 624.91 240.17 624.83 235.62 622.80 231.64 C 622.35 226.32 620.21 221.36 619.64 216.05 C 619.62 214.05 618.33 212.49 616.70 211.49 C 610.73 212.35 605.01 214.52 598.98 214.96 C 594.52 215.26 590.56 217.84 586.02 217.56 C 575.32 220.20 564.20 221.12 553.57 224.18 C 543.65 225.18 534.00 227.91 524.19 229.58 C 509.24 232.93 494.04 235.27 479.12 238.81 C 473.71 239.83 468.17 240.45 462.93 242.10 C 447.16 251.26 432.27 262.43 420.73 276.68 C 416.35 282.82 411.75 288.88 408.42 295.69 C 404.98 302.22 402.69 309.27 400.66 316.35 C 398.98 321.89 399.08 327.74 398.36 333.42 C 396.18 336.79 391.71 337.41 388.03 337.66 C 383.49 338.01 378.64 341.19 374.29 338.43 C 366.49 333.51 358.13 329.60 350.21 324.90 C 346.47 322.60 342.01 321.37 338.79 318.28 C 337.26 315.45 337.77 312.08 337.74 308.99 C 338.66 299.69 338.08 290.33 338.24 280.99 C 338.11 273.66 338.73 266.30 337.80 259.00 C 337.81 249.66 337.43 240.30 338.31 231.00 C 338.47 186.65 338.68 142.30 338.50 97.95 C 338.16 95.14 340.51 92.63 343.04 91.77 C 357.11 90.58 370.97 87.69 385.02 86.27 C 400.30 83.75 415.74 82.41 430.99 79.73 C 438.09 79.59 444.91 77.36 451.99 77.15 C 460.57 75.33 469.36 74.97 478.00 73.47 C 483.77 72.35 489.72 72.58 495.38 70.83 C 503.66 70.34 511.80 68.70 520.02 67.66 C 524.13 67.58 528.09 66.39 532.12 65.71 C 541.15 65.42 549.96 63.25 558.95 62.43 C 567.37 60.92 575.96 60.70 584.29 58.73 C 594.01 58.17 603.53 55.94 613.22 55.17 C 620.84 53.13 628.80 53.56 636.48 51.80 C 646.17 50.78 655.74 48.80 665.46 48.19 C 673.72 46.16 682.26 46.07 690.61 44.54 C 696.81 43.30 703.21 43.47 709.34 41.76 C 715.60 41.37 721.79 40.35 727.99 39.34 C 741.18 37.73 754.35 35.98 767.53 34.20 C 775.10 32.98 782.66 31.61 790.32 31.15 C 798.93 29.37 807.72 28.88 816.38 27.35 C 820.91 26.39 825.60 26.68 830.10 25.47 C 835.32 24.03 840.81 24.65 846.08 23.39 C 845.09 23.01 844.12 22.64 843.13 22.31 Z" />
<path fill="#a09da2" opacity="1.00" d=" M 658.40 201.42 C 664.96 199.20 672.02 199.60 678.72 197.90 C 678.84 198.59 679.08 199.97 679.20 200.67 L 678.48 200.62 C 672.24 199.80 666.24 202.13 660.14 202.98 C 655.07 204.02 649.93 204.60 644.83 205.40 C 646.08 207.63 649.03 207.15 651.09 208.12 C 656.52 210.43 661.37 213.89 666.74 216.32 C 670.53 211.40 673.18 205.50 678.04 201.48 C 676.17 207.50 671.30 211.83 668.66 217.45 C 667.59 217.45 666.52 217.49 665.47 217.34 C 657.87 214.43 651.47 208.03 642.97 207.77 C 643.52 206.23 643.58 204.03 645.49 203.51 C 649.60 201.87 654.22 202.86 658.40 201.42 Z" />
<path fill="#a09da2" opacity="1.00" d=" M 898.06 199.04 C 900.46 197.29 902.89 199.95 904.99 200.98 C 904.85 208.24 905.70 215.63 903.88 222.75 C 901.36 235.90 895.44 248.48 886.50 258.48 C 881.40 264.68 875.53 270.50 868.32 274.19 C 865.92 274.98 863.77 276.32 861.95 278.07 C 861.53 278.33 860.69 278.85 860.27 279.11 C 853.44 280.74 847.16 284.59 840.03 284.84 C 836.87 285.10 833.96 281.72 835.79 278.77 C 840.07 271.90 845.29 265.67 850.46 259.45 C 853.93 255.27 856.41 250.00 861.32 247.25 C 860.34 249.48 859.07 251.58 857.46 253.41 C 854.03 257.36 850.98 261.62 847.63 265.64 C 844.37 269.57 842.01 274.16 838.63 277.99 C 837.32 279.35 837.78 281.27 837.76 282.96 C 841.33 283.39 844.93 282.82 848.25 281.45 C 871.67 273.69 891.62 254.74 899.13 231.06 C 901.80 226.53 903.21 221.41 903.38 216.16 C 903.52 211.29 905.55 205.91 902.57 201.49 C 901.27 201.23 899.32 199.56 898.33 201.12 C 889.37 211.96 881.32 223.50 872.34 234.33 C 868.70 238.66 865.90 243.79 861.32 247.25 C 861.91 245.35 862.73 243.52 864.02 241.98 C 873.09 231.01 881.57 219.56 890.32 208.32 C 892.87 205.22 894.77 201.46 898.06 199.04 Z" />
<path fill="#a09da2" opacity="1.00" d=" M 658.27 229.71 C 667.13 227.40 676.64 226.02 685.63 228.40 C 690.23 230.09 695.64 232.29 697.67 237.12 C 696.26 239.83 694.45 242.30 692.81 244.88 C 689.24 249.32 686.07 254.07 682.87 258.77 C 677.83 264.15 674.79 271.09 669.44 276.19 C 669.18 275.60 668.65 274.43 668.39 273.84 C 667.70 271.18 667.04 268.51 666.21 265.89 C 664.43 253.65 659.73 241.98 658.27 229.71 Z" />
<path fill="#a09da2" opacity="1.00" d=" M 881.52 444.75 C 887.93 443.45 894.31 445.52 900.73 445.59 C 905.85 448.10 911.41 449.71 916.26 452.77 C 927.87 459.87 937.16 470.32 943.90 482.06 C 949.94 492.28 953.12 503.85 955.44 515.41 C 956.22 526.12 956.24 536.88 955.37 547.59 C 953.66 552.76 953.27 558.26 951.34 563.37 C 946.46 578.95 937.00 592.98 924.65 603.65 C 920.95 607.22 916.00 608.93 911.71 611.65 C 908.04 613.97 903.79 615.01 899.85 616.74 C 897.10 618.07 893.95 617.53 891.02 617.66 C 886.07 617.56 881.12 617.89 876.20 617.46 C 871.18 615.63 866.00 614.12 861.20 611.74 C 839.10 600.23 824.72 577.33 819.72 553.36 C 819.17 549.54 817.29 545.97 817.37 542.06 C 817.35 535.02 817.35 527.98 817.36 520.94 C 817.26 517.58 818.70 514.47 819.28 511.22 C 820.98 501.39 824.62 491.99 829.23 483.19 C 832.90 476.48 837.10 469.96 842.85 464.83 C 850.26 456.73 859.73 450.61 870.07 446.99 C 873.50 444.76 877.70 445.63 881.52 444.75 M 875.40 447.67 C 870.90 448.58 866.74 450.52 862.61 452.41 C 856.32 455.07 851.19 459.73 845.84 463.84 C 841.18 468.94 836.73 474.31 833.04 480.16 C 821.69 499.62 817.23 522.92 820.44 545.20 C 820.68 551.88 822.90 558.26 825.02 564.54 C 826.82 571.93 830.80 578.53 834.83 584.91 C 844.17 600.24 859.90 611.45 877.45 615.25 C 889.67 616.75 903.01 615.69 913.41 608.50 C 917.98 605.79 922.92 603.55 926.75 599.76 C 943.42 584.12 952.24 561.46 954.20 539.00 C 956.11 513.01 948.00 486.03 930.60 466.42 C 916.62 451.92 895.52 443.11 875.40 447.67 Z" />
<path fill="#a09da2" opacity="1.00" d=" M 617.72 639.69 C 619.05 638.08 621.40 638.19 623.24 637.55 C 628.08 643.23 630.88 650.45 636.61 655.39 C 646.38 665.67 658.37 673.54 670.82 680.18 C 675.27 682.49 679.27 685.83 684.30 686.83 C 691.34 692.15 699.52 695.56 707.19 699.84 C 714.67 704.14 722.76 707.23 730.78 710.36 C 734.94 711.79 738.91 713.80 743.23 714.75 C 750.34 715.77 756.88 719.07 764.03 719.98 C 768.78 720.39 773.24 722.48 778.04 722.41 C 782.45 722.19 786.64 723.71 790.98 724.20 C 798.99 724.51 806.97 725.42 815.00 725.24 C 819.87 725.48 824.81 725.20 829.45 723.57 C 834.03 721.90 838.99 722.85 843.67 721.73 C 849.42 720.39 855.35 719.83 860.95 717.87 C 874.27 714.14 887.52 710.01 900.06 704.10 C 902.70 702.47 905.59 703.89 908.12 704.97 C 906.48 710.88 903.56 716.29 900.82 721.74 C 891.94 740.21 880.16 757.22 866.33 772.34 C 862.51 776.20 858.57 779.94 854.77 783.84 C 850.11 785.89 847.10 790.21 842.84 792.85 C 822.37 807.95 798.61 818.40 773.82 823.97 C 761.33 826.40 748.68 829.00 735.88 828.01 C 734.61 827.82 733.35 827.83 732.09 828.02 C 730.75 828.11 729.41 828.19 728.08 828.27 C 726.41 827.66 724.62 827.62 722.94 828.17 C 711.67 828.72 700.57 826.51 689.55 824.45 C 685.65 823.70 682.04 821.94 678.18 821.08 C 668.07 818.59 660.41 810.86 653.58 803.44 C 640.98 789.35 631.33 772.70 625.30 754.79 C 622.05 746.84 620.59 738.35 618.07 730.18 C 617.36 727.83 617.40 725.37 617.28 722.96 C 617.17 718.57 615.58 714.38 615.38 710.00 C 615.08 705.35 614.46 700.71 614.39 696.05 C 614.38 679.95 613.78 663.69 616.87 647.81 C 617.29 645.11 617.26 642.37 617.72 639.69 M 620.20 640.16 C 617.29 649.77 618.13 660.09 616.55 669.95 C 616.31 679.31 616.37 688.68 616.52 698.05 C 617.68 705.00 617.54 712.07 618.51 719.06 C 620.21 729.71 622.75 740.20 625.69 750.58 C 633.22 772.92 645.12 794.31 662.78 810.22 C 666.28 813.14 669.67 816.70 674.37 817.51 C 683.84 819.77 693.15 822.69 702.81 824.12 C 710.87 824.88 718.90 825.87 727.00 826.26 C 737.40 826.52 747.69 824.79 758.04 824.15 C 768.00 822.36 778.06 820.67 787.54 817.01 C 794.87 815.83 801.39 812.11 808.27 809.55 C 829.35 800.41 848.67 787.14 864.47 770.44 C 878.99 755.00 890.80 737.10 899.81 717.92 C 901.56 713.71 904.53 709.83 904.76 705.14 C 903.49 705.27 902.18 705.27 901.05 705.92 C 893.23 709.75 884.92 712.43 876.81 715.56 C 867.82 718.21 858.71 720.46 849.78 723.29 C 843.17 723.30 836.83 725.50 830.24 725.64 C 825.78 725.88 821.49 727.55 817.01 727.38 C 804.67 727.19 792.40 725.94 780.08 725.37 C 769.77 722.79 759.05 721.84 748.99 718.28 C 744.51 716.85 739.94 715.76 735.48 714.30 C 729.33 712.46 723.61 709.50 717.60 707.28 C 713.39 705.77 709.64 703.29 705.70 701.23 C 699.04 697.59 692.02 694.60 685.69 690.37 C 676.79 685.64 667.85 680.99 659.17 675.87 C 645.17 666.95 632.32 655.74 623.24 641.72 C 622.60 640.89 621.21 638.25 620.20 640.16 Z" />
</g>
<g id="#66686cff">
<path fill="#66686c" opacity="1.00" d=" M 787.73 33.89 C 808.10 30.73 828.62 28.51 848.98 25.31 C 862.70 24.16 876.63 25.33 889.88 29.10 C 897.34 31.33 903.99 35.51 910.82 39.15 C 914.85 41.25 918.66 44.28 923.42 44.38 C 922.93 39.25 917.16 36.99 916.64 32.00 C 930.08 36.58 942.68 43.14 955.01 50.10 C 953.77 51.20 950.99 52.51 952.47 54.48 C 957.30 59.66 961.67 65.50 963.66 72.41 C 967.96 83.85 966.19 96.46 962.97 107.93 C 956.42 129.50 944.87 149.31 931.15 167.07 C 929.06 170.10 930.01 174.06 930.67 177.41 C 934.52 194.25 941.26 210.56 942.08 227.98 C 941.65 244.71 935.79 261.27 925.59 274.55 C 912.47 290.90 893.37 303.97 871.86 304.80 C 860.51 304.36 848.32 302.30 839.63 294.35 C 838.18 292.48 835.89 293.12 834.02 293.84 C 829.32 296.03 827.09 301.06 823.84 304.81 C 818.74 312.31 812.78 319.15 807.65 326.62 C 804.20 331.48 800.79 336.36 797.00 340.96 C 785.78 356.10 774.63 371.31 763.66 386.63 C 753.86 399.27 744.86 412.49 735.48 425.43 C 725.21 438.94 715.74 453.03 705.81 466.78 C 698.45 476.49 691.77 486.69 684.58 496.52 C 675.63 510.38 666.30 524.07 658.90 538.85 C 655.05 546.49 651.87 554.44 648.33 562.22 C 645.05 571.21 642.75 580.51 641.17 589.94 C 640.96 598.62 641.20 607.32 641.10 616.02 C 641.08 625.26 644.84 633.88 647.51 642.57 C 648.85 646.06 650.91 649.22 652.39 652.66 C 655.43 660.14 661.21 665.99 665.28 672.89 C 659.69 670.94 655.11 667.08 650.41 663.60 C 642.45 657.63 635.33 650.50 629.62 642.34 C 627.38 639.06 624.89 635.78 623.82 631.89 C 623.59 629.52 624.33 627.19 624.78 624.89 C 626.11 619.74 625.35 614.29 627.03 609.21 C 629.44 600.96 631.55 592.61 634.46 584.52 C 636.87 579.34 638.08 573.71 640.64 568.60 C 643.19 563.59 644.47 558.06 647.06 553.08 C 651.19 544.88 655.13 536.58 659.52 528.52 C 664.23 521.42 667.85 513.69 672.39 506.49 C 679.82 494.06 687.74 481.93 695.70 469.84 C 697.68 466.50 699.59 463.10 702.00 460.04 C 705.11 456.04 707.33 451.45 710.47 447.47 C 714.07 442.98 716.64 437.77 720.35 433.37 C 726.35 426.25 731.08 418.19 736.89 410.93 C 764.66 373.24 794.00 336.75 822.92 299.96 C 825.59 296.48 829.38 293.49 829.86 288.82 C 830.61 287.86 831.37 286.91 832.16 285.97 C 841.92 286.54 851.90 284.17 860.27 279.11 C 860.69 278.85 861.53 278.33 861.95 278.07 C 864.34 277.25 866.64 276.14 868.32 274.19 C 875.53 270.50 881.40 264.68 886.50 258.48 C 895.44 248.48 901.36 235.90 903.88 222.75 C 905.70 215.63 904.85 208.24 904.99 200.98 C 904.83 198.40 904.02 195.87 904.18 193.29 C 908.56 185.86 914.64 179.59 919.25 172.30 C 923.88 165.86 928.01 159.09 932.54 152.58 C 939.86 140.28 946.34 127.49 952.45 114.56 C 954.88 106.53 956.83 98.32 957.85 89.99 C 959.01 77.25 954.44 62.94 943.18 55.86 C 931.82 47.76 917.69 45.05 904.05 44.03 C 896.34 44.08 888.58 43.56 880.95 44.86 C 868.89 46.30 856.88 48.11 844.85 49.78 C 820.14 52.70 795.53 56.47 770.87 59.78 C 734.18 64.64 697.51 69.67 660.86 74.82 C 622.57 79.53 584.44 85.55 546.14 90.21 C 521.37 93.86 496.55 97.14 471.77 100.65 C 460.75 101.41 449.90 103.58 438.94 104.88 C 424.50 106.53 410.19 109.09 395.74 110.68 C 390.04 111.72 384.12 111.74 378.60 113.61 C 377.78 114.89 378.05 116.52 377.91 117.96 C 378.01 132.98 377.84 147.99 377.87 163.00 C 377.79 167.76 378.32 172.58 377.31 177.28 C 376.70 161.87 377.18 146.42 377.12 131.00 C 377.08 125.49 377.51 119.96 376.70 114.49 C 376.04 114.41 374.72 114.24 374.06 114.16 C 373.87 170.78 374.01 227.41 373.95 284.03 C 373.93 288.53 373.11 293.03 373.58 297.53 C 373.85 300.31 373.99 303.11 373.78 305.91 C 373.09 314.28 375.28 322.78 373.20 331.04 C 364.63 328.17 357.24 322.79 349.18 318.84 C 346.87 317.49 343.38 316.34 343.88 313.02 C 343.94 244.01 343.88 174.98 344.03 105.97 C 344.25 102.50 344.60 99.05 344.69 95.58 C 343.98 95.36 342.55 94.91 341.84 94.69 C 350.39 92.84 359.20 92.70 367.77 90.90 C 372.75 90.04 377.85 90.05 382.80 88.97 C 444.18 80.59 505.55 72.29 566.91 63.79 C 574.99 63.29 582.86 61.17 590.95 60.72 C 599.86 58.93 608.97 58.61 617.89 56.86 C 626.55 56.23 635.00 54.09 643.66 53.49 C 652.51 51.70 661.57 51.52 670.40 49.63 C 678.55 49.11 686.50 47.15 694.64 46.57 C 699.80 46.08 704.82 44.67 710.00 44.37 C 714.16 44.13 718.28 43.41 722.37 42.62 C 744.19 39.93 765.91 36.53 787.73 33.89 Z" />
<path fill="#66686c" opacity="1.00" d=" M 683.20 203.08 C 687.38 202.22 691.62 201.31 695.90 201.21 C 704.14 202.51 713.35 204.70 718.31 212.09 C 717.27 215.14 715.03 217.57 713.38 220.29 C 709.82 225.69 706.76 231.60 701.81 235.89 C 698.59 238.68 696.44 242.54 692.81 244.88 C 694.45 242.30 696.26 239.83 697.67 237.12 C 695.64 232.29 690.23 230.09 685.63 228.40 C 676.64 226.02 667.13 227.40 658.27 229.71 C 659.73 241.98 664.43 253.65 666.21 265.89 C 663.19 259.77 662.62 252.87 660.75 246.37 C 659.24 241.11 658.45 235.62 656.60 230.46 C 655.13 228.78 652.98 227.94 651.10 226.82 C 643.69 222.93 636.45 218.73 628.98 214.97 C 626.30 213.58 624.00 211.60 621.76 209.62 C 628.59 207.60 635.90 206.40 642.97 207.77 C 651.47 208.03 657.87 214.43 665.47 217.34 C 666.52 217.49 667.59 217.45 668.66 217.45 C 669.05 217.87 669.85 218.72 670.24 219.14 C 673.70 215.18 675.90 210.34 679.23 206.29 C 680.32 205.00 681.38 203.37 683.20 203.08 Z" />
<path fill="#66686c" opacity="1.00" d=" M 669.44 276.19 C 674.79 271.09 677.83 264.15 682.87 258.77 C 682.84 259.49 682.77 260.93 682.73 261.64 C 680.46 264.42 678.10 267.13 676.13 270.12 C 674.28 272.92 674.01 276.42 672.40 279.34 C 667.50 287.86 660.89 295.20 655.36 303.29 C 650.34 310.25 645.26 317.17 640.00 323.95 C 634.83 331.68 628.47 338.51 623.33 346.25 C 615.88 355.17 608.72 364.33 601.41 373.36 C 585.79 392.61 571.28 412.72 557.09 433.04 C 545.99 450.34 534.38 467.32 524.29 485.25 C 516.19 498.04 509.23 511.48 501.72 524.61 C 497.60 532.21 494.00 540.07 489.69 547.56 C 483.03 561.69 476.79 576.01 470.67 590.36 C 469.16 597.90 464.65 604.31 462.73 611.72 C 460.33 618.11 458.71 624.75 456.30 631.14 C 453.83 638.91 452.95 647.03 451.07 654.94 C 450.31 661.66 447.68 668.14 448.17 675.00 C 448.91 688.23 444.90 701.34 446.62 714.57 C 447.20 723.39 448.60 732.17 448.16 741.03 C 447.67 747.24 451.14 752.82 451.06 758.97 C 451.10 761.40 451.21 763.87 451.90 766.23 C 453.37 771.62 453.77 777.27 455.68 782.55 C 457.80 788.55 458.52 794.99 461.35 800.74 C 463.70 806.15 465.30 811.86 467.77 817.23 C 470.23 823.74 474.24 829.48 477.34 835.69 C 479.42 839.81 481.73 843.83 484.49 847.54 C 490.01 854.99 494.91 862.94 501.32 869.68 C 504.63 873.78 508.68 877.32 511.31 881.93 C 507.19 880.28 504.05 877.06 500.61 874.38 C 490.81 866.60 481.73 857.95 473.23 848.78 C 467.60 843.30 463.10 836.84 458.36 830.61 C 441.65 807.48 430.14 780.74 424.16 752.87 C 423.59 746.80 421.09 741.10 420.88 734.99 C 420.61 729.59 418.27 724.46 418.76 719.00 C 419.41 709.91 416.66 700.96 417.53 691.88 C 418.15 684.99 417.23 678.05 418.15 671.17 C 419.02 664.13 418.71 657.03 418.75 649.96 C 418.66 645.52 420.79 641.44 420.88 637.02 C 420.86 632.48 422.94 628.36 423.75 623.97 C 425.45 615.06 428.34 606.44 430.78 597.72 C 428.76 598.14 427.25 599.53 426.12 601.19 C 431.12 583.48 438.57 566.61 445.72 549.71 C 462.37 512.69 482.32 477.25 503.78 442.82 C 522.50 413.32 542.39 384.53 564.23 357.24 C 588.26 328.35 610.75 298.22 632.71 267.73 C 634.49 265.46 636.25 263.12 637.21 260.36 C 642.15 263.85 648.08 265.57 653.16 268.87 C 657.86 271.04 661.89 274.59 666.81 276.25 C 667.21 275.65 667.99 274.44 668.39 273.84 C 668.65 274.43 669.18 275.60 669.44 276.19 Z" />
<path fill="#66686c" opacity="1.00" d=" M 914.77 702.72 C 928.68 696.91 941.36 688.65 954.31 681.04 C 954.07 683.04 953.70 685.03 953.02 686.94 C 948.89 699.28 946.41 712.17 941.33 724.19 C 938.58 732.62 934.05 740.30 930.39 748.34 C 921.64 765.11 910.37 780.59 896.96 793.94 C 894.48 796.56 890.92 798.59 890.35 802.48 C 885.06 807.93 878.81 812.37 872.45 816.48 C 856.01 827.56 837.50 835.24 818.42 840.46 C 794.12 846.42 768.70 849.14 743.85 845.26 C 726.55 842.55 709.23 838.37 693.48 830.52 C 688.64 828.04 683.91 825.35 679.03 822.97 C 678.81 822.49 678.39 821.55 678.18 821.08 C 682.04 821.94 685.65 823.70 689.55 824.45 C 700.57 826.51 711.67 828.72 722.94 828.17 C 724.36 829.63 726.56 829.59 728.08 828.27 C 729.41 828.19 730.75 828.11 732.09 828.02 C 732.54 829.76 735.44 829.77 735.88 828.01 C 748.68 829.00 761.33 826.40 773.82 823.97 C 798.61 818.40 822.37 807.95 842.84 792.85 C 847.10 790.21 850.11 785.89 854.77 783.84 C 856.78 782.95 858.75 781.89 860.22 780.22 C 867.37 772.74 875.25 765.86 881.16 757.29 C 884.62 751.48 889.40 746.58 892.56 740.57 C 898.65 731.30 903.84 721.47 908.12 711.24 C 909.40 707.81 911.15 704.17 914.77 702.72 Z" />
</g>
<g id="#ffffffff">
<path fill="#ffffff" opacity="1.00" d=" M 151.33 81.29 C 202.86 63.48 254.43 45.77 305.97 27.96 C 306.04 44.94 305.99 61.91 305.99 78.88 C 267.06 91.60 228.14 104.40 189.21 117.14 C 188.30 117.49 187.46 117.96 186.68 118.57 C 226.48 131.67 266.22 144.93 306.00 158.06 C 305.99 173.11 306.02 188.17 305.99 203.22 C 253.93 185.45 201.99 167.32 149.94 149.55 C 147.19 149.94 144.65 151.20 142.00 152.01 C 95.33 167.88 48.72 183.95 2.00 199.69 C 2.12 182.98 1.76 166.25 2.18 149.55 C 37.85 138.33 73.31 126.47 108.93 115.08 C 110.44 114.59 111.95 114.05 113.37 113.32 C 76.28 100.79 39.05 88.68 1.96 76.17 C 2.07 61.29 1.94 46.41 2.03 31.53 C 50.86 48.07 99.63 64.82 148.44 81.43 C 149.42 81.79 150.38 81.74 151.33 81.29 Z" />
<path fill="#ffffff" opacity="1.00" d=" M 880.95 44.86 C 888.58 43.56 896.34 44.08 904.05 44.03 C 917.69 45.05 931.82 47.76 943.18 55.86 C 954.44 62.94 959.01 77.25 957.85 89.99 C 956.83 98.32 954.88 106.53 952.45 114.56 C 946.34 127.49 939.86 140.28 932.54 152.58 C 928.01 159.09 923.88 165.86 919.25 172.30 C 914.64 179.59 908.56 185.86 904.18 193.29 C 904.02 195.87 904.83 198.40 904.99 200.98 C 902.89 199.95 900.46 197.29 898.06 199.04 C 894.77 201.46 892.87 205.22 890.32 208.32 C 881.57 219.56 873.09 231.01 864.02 241.98 C 862.73 243.52 861.91 245.35 861.32 247.25 C 856.41 250.00 853.93 255.27 850.46 259.45 C 845.29 265.67 840.07 271.90 835.79 278.77 C 833.96 281.72 836.87 285.10 840.03 284.84 C 847.16 284.59 853.44 280.74 860.27 279.11 C 851.90 284.17 841.92 286.54 832.16 285.97 C 831.37 286.91 830.61 287.86 829.86 288.82 C 822.65 296.71 816.52 305.49 809.60 313.61 C 767.89 366.57 726.07 419.58 688.74 475.76 C 669.11 505.72 650.68 536.64 636.60 569.64 C 628.63 589.37 621.72 609.97 620.49 631.37 C 620.10 633.78 622.05 635.66 623.24 637.55 C 621.40 638.19 619.05 638.08 617.72 639.69 C 617.26 642.37 617.29 645.11 616.87 647.81 C 613.78 663.69 614.38 679.95 614.39 696.05 C 614.46 700.71 615.08 705.35 615.38 710.00 C 615.58 714.38 617.17 718.57 617.28 722.96 C 617.40 725.37 617.36 727.83 618.07 730.18 C 620.59 738.35 622.05 746.84 625.30 754.79 C 631.33 772.70 640.98 789.35 653.58 803.44 C 660.41 810.86 668.07 818.59 678.18 821.08 C 678.39 821.55 678.81 822.49 679.03 822.97 C 683.91 825.35 688.64 828.04 693.48 830.52 C 709.23 838.37 726.55 842.55 743.85 845.26 C 768.70 849.14 794.12 846.42 818.42 840.46 C 837.50 835.24 856.01 827.56 872.45 816.48 C 878.81 812.37 885.06 807.93 890.35 802.48 C 894.45 799.60 897.76 795.81 901.31 792.31 C 910.30 783.78 917.30 773.46 924.36 763.35 C 928.11 758.53 930.52 752.87 933.67 747.67 C 946.02 724.12 954.54 698.65 959.94 672.65 C 944.51 683.91 927.72 693.17 910.63 701.62 C 909.11 702.10 908.65 703.65 908.12 704.97 C 905.59 703.89 902.70 702.47 900.06 704.10 C 887.52 710.01 874.27 714.14 860.95 717.87 C 855.35 719.83 849.42 720.39 843.67 721.73 C 838.99 722.85 834.03 721.90 829.45 723.57 C 824.81 725.20 819.87 725.48 815.00 725.24 C 806.97 725.42 798.99 724.51 790.98 724.20 C 786.64 723.71 782.45 722.19 778.04 722.41 C 773.24 722.48 768.78 720.39 764.03 719.98 C 756.88 719.07 750.34 715.77 743.23 714.75 C 738.91 713.80 734.94 711.79 730.78 710.36 C 722.76 707.23 714.67 704.14 707.19 699.84 C 699.52 695.56 691.34 692.15 684.30 686.83 C 680.15 682.93 675.03 680.06 671.62 675.42 C 666.20 668.41 659.97 661.86 656.36 653.66 C 647.04 636.75 642.93 617.18 644.06 597.95 C 646.01 572.01 656.22 547.48 669.25 525.24 C 675.12 516.12 680.50 506.68 687.01 498.00 C 693.24 488.03 700.33 478.63 706.92 468.90 C 739.06 422.92 772.30 377.72 805.67 332.63 C 811.97 324.86 817.22 316.30 823.62 308.61 C 827.20 303.77 830.87 298.98 834.02 293.84 C 835.89 293.12 838.18 292.48 839.63 294.35 C 848.32 302.30 860.51 304.36 871.86 304.80 C 893.37 303.97 912.47 290.90 925.59 274.55 C 935.79 261.27 941.65 244.71 942.08 227.98 C 941.26 210.56 934.52 194.25 930.67 177.41 C 930.01 174.06 929.06 170.10 931.15 167.07 C 944.87 149.31 956.42 129.50 962.97 107.93 C 966.19 96.46 967.96 83.85 963.66 72.41 C 961.67 65.50 957.30 59.66 952.47 54.48 C 950.99 52.51 953.77 51.20 955.01 50.10 C 957.90 53.38 962.47 53.73 966.05 55.94 C 985.03 66.18 1004.59 76.55 1019.40 92.60 C 1024.65 98.38 1031.20 103.09 1035.11 109.98 C 1037.79 114.26 1040.86 118.28 1043.51 122.58 C 1046.98 127.98 1048.57 134.28 1050.71 140.27 C 1052.42 145.91 1055.28 151.26 1055.73 157.23 C 1056.27 163.86 1058.51 170.27 1058.37 176.97 C 1058.29 186.67 1058.48 196.37 1058.29 206.06 C 1057.76 212.66 1056.73 219.23 1055.84 225.79 C 1052.83 235.32 1052.01 245.50 1047.74 254.65 C 1044.96 260.33 1042.94 266.35 1040.01 271.96 C 1035.75 279.24 1030.52 285.89 1026.05 293.03 C 1017.40 305.79 1006.49 316.79 995.36 327.38 C 992.90 329.68 989.79 331.32 987.86 334.14 C 987.87 335.43 988.12 336.89 989.49 337.44 C 992.62 339.37 996.03 340.81 999.16 342.76 C 1004.96 346.12 1009.91 350.68 1014.85 355.16 C 1036.77 372.98 1052.14 397.78 1062.12 423.96 C 1066.11 433.45 1069.20 443.28 1071.67 453.27 C 1073.15 460.40 1075.26 467.41 1075.76 474.71 C 1077.59 480.12 1077.10 485.92 1078.75 491.37 C 1080.46 498.35 1079.80 505.66 1081.39 512.67 C 1082.97 519.65 1081.64 526.90 1083.35 533.85 C 1084.84 540.11 1085.01 546.56 1084.83 552.96 C 1084.54 561.01 1086.24 568.96 1086.36 577.00 C 1086.48 582.33 1085.47 587.65 1085.97 593.00 C 1086.89 604.32 1084.83 615.60 1084.69 626.92 C 1084.63 632.67 1082.36 638.15 1082.43 643.92 C 1082.49 647.56 1081.88 651.16 1080.91 654.67 C 1078.74 666.20 1076.60 677.77 1073.15 689.02 C 1070.46 700.65 1065.76 711.65 1061.84 722.89 C 1058.26 731.53 1054.27 739.99 1050.72 748.64 C 1046.43 757.29 1041.52 765.61 1037.27 774.27 C 1026.98 789.76 1017.20 805.78 1004.44 819.42 C 1000.18 824.18 996.56 829.50 991.91 833.91 C 983.61 841.94 975.58 850.24 967.22 858.21 C 961.19 863.20 954.87 867.83 948.99 873.01 C 944.23 877.34 938.56 880.48 933.71 884.71 C 927.48 889.26 920.70 893.01 914.24 897.21 C 905.43 902.40 897.29 908.74 887.94 912.96 C 878.07 917.74 868.30 922.72 858.47 927.55 C 850.32 931.98 841.34 934.44 832.76 937.82 C 820.98 941.60 809.81 947.23 797.70 949.96 C 789.04 951.86 780.43 953.96 771.75 955.80 C 767.19 956.73 762.74 958.47 758.03 958.42 C 751.67 958.47 745.25 958.04 738.97 959.25 C 732.58 960.03 726.15 961.41 719.70 960.69 C 713.49 960.02 707.22 960.55 701.03 959.71 C 693.50 958.59 685.60 960.19 678.47 956.90 C 666.94 955.88 655.82 952.38 644.42 950.57 C 633.82 947.22 623.29 943.62 612.64 940.40 C 600.85 935.29 589.26 929.72 577.51 924.51 C 569.02 919.40 560.20 914.86 551.43 910.24 C 541.44 903.10 531.58 895.77 522.36 887.65 C 514.58 880.41 507.53 872.47 500.42 864.59 C 491.26 852.46 482.31 840.07 475.70 826.32 C 470.62 817.17 467.28 807.25 463.53 797.53 C 460.33 787.36 457.85 776.98 455.47 766.60 C 453.80 756.36 452.58 746.06 451.32 735.76 C 450.58 726.19 450.99 716.58 450.79 707.00 C 450.94 697.29 450.55 687.56 451.65 677.90 C 452.28 665.86 454.91 654.05 457.21 642.25 C 459.34 631.16 463.42 620.59 466.89 609.88 C 471.67 593.87 478.96 578.82 485.56 563.53 C 491.91 549.18 499.56 535.47 506.43 521.38 C 514.19 507.24 522.06 493.16 530.39 479.34 C 545.97 454.19 561.83 429.19 579.36 405.34 C 591.32 388.49 604.67 372.69 617.64 356.61 C 648.39 317.67 677.35 277.36 705.55 236.55 C 710.33 228.69 716.01 221.44 721.07 213.78 C 722.01 210.19 718.47 207.90 716.39 205.60 C 710.94 199.98 702.75 198.48 695.24 198.46 C 689.87 199.17 684.28 198.54 679.20 200.67 C 679.08 199.97 678.84 198.59 678.72 197.90 C 672.02 199.60 664.96 199.20 658.40 201.42 C 654.22 202.86 649.60 201.87 645.49 203.51 C 643.58 204.03 643.52 206.23 642.97 207.77 C 635.90 206.40 628.59 207.60 621.76 209.62 C 621.30 209.84 620.36 210.29 619.89 210.51 C 617.97 210.02 615.95 209.20 613.98 209.96 C 608.31 211.70 602.33 211.99 596.63 213.59 C 589.83 214.60 583.15 216.32 576.28 216.73 C 570.01 218.78 563.54 220.17 557.04 221.21 C 553.32 221.28 549.66 221.84 546.20 223.22 C 539.61 224.64 533.02 226.16 526.29 226.76 C 519.94 228.50 513.48 229.93 506.98 231.00 C 501.32 231.40 495.95 233.41 490.28 233.78 C 482.33 236.29 474.04 237.46 465.87 239.04 C 457.73 241.66 451.10 247.35 444.17 252.16 C 424.47 267.13 407.26 286.94 400.06 311.00 C 397.72 317.93 397.72 325.33 396.30 332.44 C 396.06 334.62 393.32 334.23 391.78 334.78 C 386.58 335.48 381.57 337.74 376.25 337.19 C 377.21 324.81 376.68 312.40 376.82 300.00 C 376.98 259.10 376.75 218.18 377.31 177.28 C 378.32 172.58 377.79 167.76 377.87 163.00 C 377.84 147.99 378.01 132.98 377.91 117.96 C 378.05 116.52 377.78 114.89 378.60 113.61 C 384.12 111.74 390.04 111.72 395.74 110.68 C 410.19 109.09 424.50 106.53 438.94 104.88 C 449.90 103.58 460.75 101.41 471.77 100.65 C 496.55 97.14 521.37 93.86 546.14 90.21 C 584.44 85.55 622.57 79.53 660.86 74.82 C 697.51 69.67 734.18 64.64 770.87 59.78 C 795.53 56.47 820.14 52.70 844.85 49.78 C 856.88 48.11 868.89 46.30 880.95 44.86 M 881.52 444.75 C 877.70 445.63 873.50 444.76 870.07 446.99 C 859.73 450.61 850.26 456.73 842.85 464.83 C 837.10 469.96 832.90 476.48 829.23 483.19 C 824.62 491.99 820.98 501.39 819.28 511.22 C 818.70 514.47 817.26 517.58 817.36 520.94 C 817.35 527.98 817.35 535.02 817.37 542.06 C 817.29 545.97 819.17 549.54 819.72 553.36 C 824.72 577.33 839.10 600.23 861.20 611.74 C 866.00 614.12 871.18 615.63 876.20 617.46 C 881.12 617.89 886.07 617.56 891.02 617.66 C 893.95 617.53 897.10 618.07 899.85 616.74 C 903.79 615.01 908.04 613.97 911.71 611.65 C 916.00 608.93 920.95 607.22 924.65 603.65 C 937.00 592.98 946.46 578.95 951.34 563.37 C 953.27 558.26 953.66 552.76 955.37 547.59 C 956.24 536.88 956.22 526.12 955.44 515.41 C 953.12 503.85 949.94 492.28 943.90 482.06 C 937.16 470.32 927.87 459.87 916.26 452.77 C 911.41 449.71 905.85 448.10 900.73 445.59 C 894.31 445.52 887.93 443.45 881.52 444.75 Z" />
<path fill="#ffffff" opacity="1.00" d=" M 2.11 227.41 C 58.74 227.62 115.37 227.44 172.00 227.50 C 216.63 227.44 261.26 227.62 305.89 227.41 C 306.14 242.60 305.93 257.80 306.00 273.00 C 248.33 273.00 190.67 273.00 133.00 273.00 C 118.35 273.23 103.67 272.49 89.05 273.45 C 97.20 274.14 105.25 275.64 113.34 276.83 C 177.54 286.60 241.71 296.57 305.92 306.23 C 306.09 321.51 305.99 336.78 305.97 352.06 C 237.13 363.57 168.30 375.11 99.46 386.65 C 97.37 387.04 95.24 387.09 93.14 387.43 C 95.97 388.32 99.07 387.87 102.01 388.01 C 170.01 387.99 238.00 388.00 306.00 388.00 C 306.00 402.00 306.00 416.00 306.00 430.00 C 204.67 430.00 103.33 430.00 2.00 430.00 C 2.01 407.65 1.98 385.30 2.02 362.95 C 73.71 351.16 145.38 339.28 217.08 327.54 C 190.67 323.06 164.12 319.40 137.66 315.23 C 92.47 308.39 47.30 301.34 2.09 294.62 C 1.95 272.22 1.92 249.81 2.11 227.41 Z" />
<path fill="#ffffff" opacity="1.00" d=" M 861.95 278.07 C 863.77 276.32 865.92 274.98 868.32 274.19 C 866.64 276.14 864.34 277.25 861.95 278.07 Z" />
<path fill="#ffffff" opacity="1.00" d=" M 44.06 466.15 C 55.32 462.55 67.23 461.57 79.00 461.74 C 129.67 461.76 180.33 461.74 231.00 461.76 C 246.61 461.86 262.66 464.05 276.64 471.38 C 288.22 477.32 297.52 487.42 302.55 499.42 C 309.04 514.84 310.01 532.06 308.23 548.53 C 306.31 565.71 298.37 582.84 284.00 593.03 C 267.08 605.36 245.28 607.59 224.94 606.99 C 225.02 591.80 224.76 576.61 225.08 561.42 C 235.83 561.45 247.76 562.58 257.06 556.11 C 265.48 550.12 266.58 538.47 264.83 529.06 C 263.71 522.17 258.81 516.19 252.28 513.71 C 243.04 509.90 232.83 509.99 223.00 510.00 C 206.57 510.05 190.14 509.90 173.71 510.07 C 180.62 513.90 187.22 518.65 191.70 525.27 C 200.22 537.56 201.47 553.56 198.67 567.90 C 196.23 580.47 188.15 591.72 176.96 597.96 C 160.98 607.09 142.00 608.28 124.00 608.00 C 106.66 607.97 89.33 608.06 71.99 607.95 C 53.22 607.56 33.47 602.72 19.42 589.61 C 8.34 579.52 2.25 565.06 0.00 550.46 L 0.00 519.54 C 1.87 507.00 6.49 494.59 14.85 484.89 C 22.46 475.92 32.89 469.64 44.06 466.15 M 63.43 510.67 C 55.11 511.68 46.62 516.67 44.29 525.18 C 41.87 534.13 42.19 545.05 48.73 552.24 C 55.25 558.87 65.18 559.79 73.98 559.75 C 91.34 559.74 108.69 559.76 126.04 559.74 C 132.27 559.71 138.69 559.16 144.39 556.48 C 150.32 553.93 154.58 548.28 155.77 541.99 C 157.36 533.66 156.64 523.90 150.48 517.50 C 144.65 511.65 135.95 510.21 128.02 510.03 C 112.35 509.96 96.67 510.02 81.00 510.00 C 75.14 510.05 69.24 509.74 63.43 510.67 Z" />
<path fill="#ffffff" opacity="1.00" d=" M 19.05 651.06 C 32.22 638.11 50.96 632.69 69.03 631.90 C 84.11 631.56 99.61 631.11 114.11 635.99 C 127.22 640.12 138.79 649.11 145.40 661.25 C 147.69 657.94 149.90 654.56 152.62 651.59 C 161.31 641.99 173.59 636.40 186.12 633.88 C 200.22 630.89 214.70 631.95 229.00 631.74 C 240.99 631.57 253.15 632.62 264.56 636.51 C 277.21 640.68 288.73 648.68 296.27 659.75 C 305.95 673.77 309.19 691.23 309.01 708.00 C 308.94 725.05 305.13 742.80 294.58 756.57 C 285.63 768.47 271.96 776.15 257.60 779.50 C 242.36 783.32 226.54 782.01 211.00 782.25 C 194.01 782.41 176.13 779.98 161.74 770.29 C 154.96 765.85 149.75 759.51 145.40 752.76 C 140.39 761.93 132.70 769.65 123.32 774.32 C 108.79 781.82 92.03 782.56 76.00 782.25 C 56.36 782.44 35.48 777.95 20.58 764.39 C 8.79 753.93 2.54 738.71 0.00 723.43 L 0.00 690.58 C 2.45 675.99 8.18 661.44 19.05 651.06 M 66.44 680.72 C 61.13 681.54 55.74 683.05 51.37 686.28 C 45.39 690.49 42.70 697.95 42.53 705.04 C 42.06 713.09 44.05 722.15 50.79 727.28 C 59.06 733.57 70.02 734.02 80.00 734.00 C 91.28 733.74 103.36 735.32 113.74 729.88 C 120.47 726.53 124.46 719.32 125.19 712.02 C 126.24 703.28 124.81 693.23 117.88 687.12 C 110.55 680.76 100.29 679.89 91.00 680.00 C 82.81 680.13 74.57 679.58 66.44 680.72 M 193.43 680.69 C 186.95 681.64 180.30 683.84 175.60 688.60 C 169.60 694.65 168.26 703.86 169.36 712.00 C 170.20 719.10 174.28 725.89 180.70 729.25 C 191.78 735.34 204.85 733.77 217.00 734.00 C 229.02 733.74 241.77 735.29 252.98 729.95 C 259.67 726.92 264.14 720.20 265.07 713.01 C 266.44 703.81 265.07 692.82 257.14 686.83 C 247.96 680.07 235.93 679.94 225.00 680.00 C 214.48 680.24 203.90 679.41 193.43 680.69 Z" />
<path fill="#ffffff" opacity="1.00" d=" M 1.95 808.54 C 14.30 808.43 26.65 808.54 39.00 808.48 C 41.28 808.48 43.60 808.36 45.81 809.04 C 131.08 832.11 216.36 855.15 301.62 878.22 C 303.03 878.59 304.46 878.93 305.89 879.27 C 306.15 895.37 305.93 911.48 306.00 927.58 C 219.14 904.28 132.40 880.50 45.52 857.28 C 45.53 889.15 45.40 921.02 45.59 952.89 C 31.05 953.14 16.49 952.93 1.94 953.00 C 1.94 904.84 1.92 856.69 1.95 808.54 Z" />
<path fill="#ffffff" opacity="1.00" d=" M 722.94 828.17 C 724.62 827.62 726.41 827.66 728.08 828.27 C 726.56 829.59 724.36 829.63 722.94 828.17 Z" />
<path fill="#ffffff" opacity="1.00" d=" M 732.09 828.02 C 733.35 827.83 734.61 827.82 735.88 828.01 C 735.44 829.77 732.54 829.76 732.09 828.02 Z" />
</g>
<g id="#4c4c50ff">
<path fill="#4c4c50" opacity="1.00" d=" M 341.20 95.18 L 341.84 94.69 C 342.55 94.91 343.98 95.36 344.69 95.58 C 344.60 99.05 344.25 102.50 344.03 105.97 C 343.88 174.98 343.94 244.01 343.88 313.02 C 343.38 316.34 346.87 317.49 349.18 318.84 C 357.24 322.79 364.63 328.17 373.20 331.04 C 375.28 322.78 373.09 314.28 373.78 305.91 C 373.99 303.11 373.85 300.31 373.58 297.53 C 373.11 293.03 373.93 288.53 373.95 284.03 C 374.01 227.41 373.87 170.78 374.06 114.16 C 374.72 114.24 376.04 114.41 376.70 114.49 C 377.51 119.96 377.08 125.49 377.12 131.00 C 377.18 146.42 376.70 161.87 377.31 177.28 C 376.75 218.18 376.98 259.10 376.82 300.00 C 376.68 312.40 377.21 324.81 376.25 337.19 C 364.44 329.92 351.66 324.25 340.03 316.73 C 339.22 311.85 340.31 306.91 340.22 302.00 C 340.13 279.98 340.47 257.97 340.37 235.95 C 341.25 220.65 340.38 205.31 341.08 190.00 C 341.04 158.39 341.60 126.78 341.20 95.18 Z" />
<path fill="#4c4c50" opacity="1.00" d=" M 679.20 200.67 C 684.28 198.54 689.87 199.17 695.24 198.46 C 702.75 198.48 710.94 199.98 716.39 205.60 C 718.47 207.90 722.01 210.19 721.07 213.78 C 716.01 221.44 710.33 228.69 705.55 236.55 C 677.35 277.36 648.39 317.67 617.64 356.61 C 604.67 372.69 591.32 388.49 579.36 405.34 C 561.83 429.19 545.97 454.19 530.39 479.34 C 522.06 493.16 514.19 507.24 506.43 521.38 C 499.56 535.47 491.91 549.18 485.56 563.53 C 478.96 578.82 471.67 593.87 466.89 609.88 C 463.42 620.59 459.34 631.16 457.21 642.25 C 454.91 654.05 452.28 665.86 451.65 677.90 C 450.55 687.56 450.94 697.29 450.79 707.00 C 450.99 716.58 450.58 726.19 451.32 735.76 C 452.58 746.06 453.80 756.36 455.47 766.60 C 457.85 776.98 460.33 787.36 463.53 797.53 C 467.28 807.25 470.62 817.17 475.70 826.32 C 482.31 840.07 491.26 852.46 500.42 864.59 C 507.53 872.47 514.58 880.41 522.36 887.65 C 531.58 895.77 541.44 903.10 551.43 910.24 C 548.50 910.02 545.80 908.83 543.12 907.75 C 540.04 906.33 536.43 905.52 534.16 902.84 C 536.74 904.17 539.44 905.27 542.21 906.16 C 536.66 901.32 529.79 898.30 523.63 894.32 C 510.68 886.27 498.36 877.14 487.01 866.95 C 463.28 845.76 444.19 819.29 432.13 789.82 C 422.60 766.25 416.96 741.11 415.35 715.75 C 414.18 707.55 413.86 699.27 413.88 691.00 C 413.88 680.34 413.80 669.63 415.21 659.04 C 415.79 654.04 415.78 648.99 416.30 643.98 C 418.47 629.49 421.83 615.20 426.12 601.19 C 427.25 599.53 428.76 598.14 430.78 597.72 C 428.34 606.44 425.45 615.06 423.75 623.97 C 422.94 628.36 420.86 632.48 420.88 637.02 C 420.79 641.44 418.66 645.52 418.75 649.96 C 418.71 657.03 419.02 664.13 418.15 671.17 C 417.23 678.05 418.15 684.99 417.53 691.88 C 416.66 700.96 419.41 709.91 418.76 719.00 C 418.27 724.46 420.61 729.59 420.88 734.99 C 421.09 741.10 423.59 746.80 424.16 752.87 C 430.14 780.74 441.65 807.48 458.36 830.61 C 463.10 836.84 467.60 843.30 473.23 848.78 C 481.73 857.95 490.81 866.60 500.61 874.38 C 504.05 877.06 507.19 880.28 511.31 881.93 C 508.68 877.32 504.63 873.78 501.32 869.68 C 494.91 862.94 490.01 854.99 484.49 847.54 C 481.73 843.83 479.42 839.81 477.34 835.69 C 474.24 829.48 470.23 823.74 467.77 817.23 C 465.30 811.86 463.70 806.15 461.35 800.74 C 458.52 794.99 457.80 788.55 455.68 782.55 C 453.77 777.27 453.37 771.62 451.90 766.23 C 451.21 763.87 451.10 761.40 451.06 758.97 C 451.14 752.82 447.67 747.24 448.16 741.03 C 448.60 732.17 447.20 723.39 446.62 714.57 C 444.90 701.34 448.91 688.23 448.17 675.00 C 447.68 668.14 450.31 661.66 451.07 654.94 C 452.95 647.03 453.83 638.91 456.30 631.14 C 458.71 624.75 460.33 618.11 462.73 611.72 C 464.65 604.31 469.16 597.90 470.67 590.36 C 476.79 576.01 483.03 561.69 489.69 547.56 C 494.00 540.07 497.60 532.21 501.72 524.61 C 509.23 511.48 516.19 498.04 524.29 485.25 C 534.38 467.32 545.99 450.34 557.09 433.04 C 571.28 412.72 585.79 392.61 601.41 373.36 C 608.72 364.33 615.88 355.17 623.33 346.25 C 628.47 338.51 634.83 331.68 640.00 323.95 C 645.26 317.17 650.34 310.25 655.36 303.29 C 660.89 295.20 667.50 287.86 672.40 279.34 C 674.01 276.42 674.28 272.92 676.13 270.12 C 678.10 267.13 680.46 264.42 682.73 261.64 C 682.77 260.93 682.84 259.49 682.87 258.77 C 686.07 254.07 689.24 249.32 692.81 244.88 C 696.44 242.54 698.59 238.68 701.81 235.89 C 706.76 231.60 709.82 225.69 713.38 220.29 C 715.03 217.57 717.27 215.14 718.31 212.09 C 713.35 204.70 704.14 202.51 695.90 201.21 C 691.62 201.31 687.38 202.22 683.20 203.08 C 681.38 203.37 680.32 205.00 679.23 206.29 C 675.90 210.34 673.70 215.18 670.24 219.14 C 669.85 218.72 669.05 217.87 668.66 217.45 C 671.30 211.83 676.17 207.50 678.04 201.48 L 678.48 200.62 L 679.20 200.67 Z" />
<path fill="#4c4c50" opacity="1.00" d=" M 619.89 210.51 C 620.36 210.29 621.30 209.84 621.76 209.62 C 624.00 211.60 626.30 213.58 628.98 214.97 C 636.45 218.73 643.69 222.93 651.10 226.82 C 652.98 227.94 655.13 228.78 656.60 230.46 C 658.45 235.62 659.24 241.11 660.75 246.37 C 662.62 252.87 663.19 259.77 666.21 265.89 C 667.04 268.51 667.70 271.18 668.39 273.84 C 667.99 274.44 667.21 275.65 666.81 276.25 C 661.89 274.59 657.86 271.04 653.16 268.87 C 648.08 265.57 642.15 263.85 637.21 260.36 C 634.67 258.40 631.52 256.56 630.85 253.14 C 626.88 239.02 624.49 224.45 619.89 210.51 Z" />
<path fill="#4c4c50" opacity="1.00" d=" M 809.60 313.61 C 816.52 305.49 822.65 296.71 829.86 288.82 C 829.38 293.49 825.59 296.48 822.92 299.96 C 794.00 336.75 764.66 373.24 736.89 410.93 C 731.08 418.19 726.35 426.25 720.35 433.37 C 716.64 437.77 714.07 442.98 710.47 447.47 C 707.33 451.45 705.11 456.04 702.00 460.04 C 699.59 463.10 697.68 466.50 695.70 469.84 C 687.74 481.93 679.82 494.06 672.39 506.49 C 667.85 513.69 664.23 521.42 659.52 528.52 C 655.13 536.58 651.19 544.88 647.06 553.08 C 644.47 558.06 643.19 563.59 640.64 568.60 C 638.08 573.71 636.87 579.34 634.46 584.52 C 631.55 592.61 629.44 600.96 627.03 609.21 C 625.35 614.29 626.11 619.74 624.78 624.89 C 624.33 627.19 623.59 629.52 623.82 631.89 C 624.89 635.78 627.38 639.06 629.62 642.34 C 635.33 650.50 642.45 657.63 650.41 663.60 C 655.11 667.08 659.69 670.94 665.28 672.89 C 661.21 665.99 655.43 660.14 652.39 652.66 C 650.91 649.22 648.85 646.06 647.51 642.57 C 644.84 633.88 641.08 625.26 641.10 616.02 C 641.20 607.32 640.96 598.62 641.17 589.94 C 642.75 580.51 645.05 571.21 648.33 562.22 C 651.87 554.44 655.05 546.49 658.90 538.85 C 666.30 524.07 675.63 510.38 684.58 496.52 C 691.77 486.69 698.45 476.49 705.81 466.78 C 715.74 453.03 725.21 438.94 735.48 425.43 C 744.86 412.49 753.86 399.27 763.66 386.63 C 774.63 371.31 785.78 356.10 797.00 340.96 C 800.79 336.36 804.20 331.48 807.65 326.62 C 812.78 319.15 818.74 312.31 823.84 304.81 C 827.09 301.06 829.32 296.03 834.02 293.84 C 830.87 298.98 827.20 303.77 823.62 308.61 C 817.22 316.30 811.97 324.86 805.67 332.63 C 772.30 377.72 739.06 422.92 706.92 468.90 C 700.33 478.63 693.24 488.03 687.01 498.00 C 680.50 506.68 675.12 516.12 669.25 525.24 C 656.22 547.48 646.01 572.01 644.06 597.95 C 642.93 617.18 647.04 636.75 656.36 653.66 C 659.97 661.86 666.20 668.41 671.62 675.42 C 675.03 680.06 680.15 682.93 684.30 686.83 C 679.27 685.83 675.27 682.49 670.82 680.18 C 658.37 673.54 646.38 665.67 636.61 655.39 C 630.88 650.45 628.08 643.23 623.24 637.55 C 622.05 635.66 620.10 633.78 620.49 631.37 C 621.72 609.97 628.63 589.37 636.60 569.64 C 650.68 536.64 669.11 505.72 688.74 475.76 C 726.07 419.58 767.89 366.57 809.60 313.61 Z" />
<path fill="#4c4c50" opacity="1.00" d=" M 910.63 701.62 C 927.72 693.17 944.51 683.91 959.94 672.65 C 954.54 698.65 946.02 724.12 933.67 747.67 C 930.52 752.87 928.11 758.53 924.36 763.35 C 917.30 773.46 910.30 783.78 901.31 792.31 C 897.76 795.81 894.45 799.60 890.35 802.48 C 890.92 798.59 894.48 796.56 896.96 793.94 C 910.37 780.59 921.64 765.11 930.39 748.34 C 934.05 740.30 938.58 732.62 941.33 724.19 C 946.41 712.17 948.89 699.28 953.02 686.94 C 953.70 685.03 954.07 683.04 954.31 681.04 C 941.36 688.65 928.68 696.91 914.77 702.72 C 911.15 704.17 909.40 707.81 908.12 711.24 C 903.84 721.47 898.65 731.30 892.56 740.57 C 889.40 746.58 884.62 751.48 881.16 757.29 C 875.25 765.86 867.37 772.74 860.22 780.22 C 858.75 781.89 856.78 782.95 854.77 783.84 C 858.57 779.94 862.51 776.20 866.33 772.34 C 880.16 757.22 891.94 740.21 900.82 721.74 C 903.56 716.29 906.48 710.88 908.12 704.97 C 908.65 703.65 909.11 702.10 910.63 701.62 Z" />
</g>
<g id="#a7a7a73a">
<path fill="#a7a7a7" opacity="0.23" d=" M 902.57 201.49 C 905.55 205.91 903.52 211.29 903.38 216.16 C 903.21 221.41 901.80 226.53 899.13 231.06 C 899.84 227.55 900.93 224.14 901.61 220.63 C 902.83 214.32 902.42 207.87 902.57 201.49 Z" />
<path fill="#a7a7a7" opacity="0.23" d=" M 837.76 282.96 C 837.78 281.27 837.32 279.35 838.63 277.99 C 838.60 278.86 838.53 280.59 838.49 281.46 C 841.74 281.63 845.00 281.67 848.25 281.45 C 844.93 282.82 841.33 283.39 837.76 282.96 Z" />
<path fill="#a7a7a7" opacity="0.23" d=" M 412.75 647.31 C 413.96 644.60 413.99 641.51 415.25 638.87 C 415.23 643.55 414.06 648.10 413.57 652.74 C 412.43 675.46 412.04 698.27 413.73 720.98 C 414.25 725.02 415.03 729.04 415.19 733.13 C 412.97 728.39 412.22 723.19 412.58 718.00 C 413.01 711.95 411.33 706.03 411.57 700.00 C 411.63 689.76 411.41 679.52 411.71 669.29 C 413.03 662.03 412.29 654.63 412.75 647.31 Z" />
</g>
</svg>
