<?xml version="1.0" encoding="UTF-8" ?>
<!DOCTYPE svg PUBLIC "-//W3C//DTD SVG 1.1//EN" "http://www.w3.org/Graphics/SVG/1.1/DTD/svg11.dtd">
<svg width="1121pt" height="1024pt" viewBox="0 0 1121 1024" version="1.1" xmlns="http://www.w3.org/2000/svg">
<g id="#ffffffff">
<path fill="#ffffff" opacity="1.00" d=" M 810.76 22.02 C 824.33 19.46 838.24 20.13 852.00 20.00 C 861.01 20.12 870.09 19.62 879.06 20.77 C 890.30 24.01 900.15 30.54 910.41 35.96 C 913.48 33.25 909.76 30.62 907.70 28.92 C 907.63 27.79 907.58 26.67 907.55 25.54 C 908.99 25.54 910.45 25.39 911.90 25.64 C 927.34 31.25 941.29 40.03 955.89 47.42 C 965.45 53.73 976.02 58.33 985.67 64.50 C 1003.49 75.28 1019.22 89.27 1032.79 105.01 C 1036.73 110.45 1040.29 116.15 1044.08 121.69 C 1046.78 125.55 1048.41 130.00 1049.93 134.43 C 1052.86 143.27 1056.50 151.97 1057.50 161.30 C 1058.77 165.79 1058.14 170.50 1059.39 174.99 C 1059.62 184.65 1059.55 194.33 1059.48 204.00 C 1059.84 208.77 1057.94 213.29 1058.36 218.07 C 1056.42 228.37 1054.28 238.71 1051.10 248.73 C 1048.69 255.41 1045.63 261.82 1042.83 268.34 C 1039.86 275.46 1034.80 281.37 1030.66 287.81 C 1019.41 305.37 1004.80 320.59 988.90 333.99 C 997.21 339.67 1006.14 344.58 1013.49 351.58 C 1032.86 368.35 1048.17 389.60 1058.73 412.92 C 1063.32 423.60 1067.57 434.45 1070.79 445.63 C 1075.09 460.84 1077.43 476.49 1080.38 491.98 C 1080.27 499.31 1082.66 506.32 1082.49 513.63 C 1083.22 520.12 1084.13 526.56 1084.65 533.08 C 1086.48 539.89 1084.52 547.13 1086.22 553.99 C 1086.67 558.34 1086.24 562.75 1086.67 567.12 C 1088.08 573.99 1087.20 581.05 1087.36 588.01 C 1087.16 596.66 1088.07 605.41 1086.58 613.98 C 1086.41 617.71 1086.55 621.47 1085.61 625.13 C 1085.70 631.06 1084.31 636.83 1084.35 642.77 C 1082.27 652.19 1080.98 661.76 1079.17 671.25 C 1076.15 681.48 1073.95 691.96 1070.50 702.06 C 1066.60 711.93 1063.76 722.21 1059.15 731.80 C 1055.37 739.91 1052.47 748.45 1047.90 756.18 C 1042.96 765.40 1038.55 774.97 1032.40 783.48 C 1027.34 790.76 1022.57 798.25 1017.32 805.40 C 1010.31 814.30 1002.74 822.73 995.53 831.46 C 989.39 837.68 983.24 843.90 976.92 849.94 C 970.78 855.51 965.10 861.61 958.36 866.49 C 952.79 870.54 948.05 875.63 942.26 879.37 C 938.08 882.16 934.43 885.68 930.16 888.33 C 920.59 894.45 910.95 900.45 901.35 906.51 C 891.87 912.93 881.17 917.16 871.07 922.48 C 863.48 925.98 856.21 930.15 848.45 933.27 C 837.22 937.31 826.06 941.52 814.83 945.56 C 799.27 952.06 782.41 954.14 766.18 958.31 C 760.54 959.85 754.70 959.36 748.94 959.69 C 735.89 962.23 722.52 961.66 709.29 961.39 C 703.63 959.89 697.67 961.31 692.02 959.82 C 687.97 959.22 683.78 960.05 679.81 958.82 C 669.84 956.80 659.84 954.96 649.84 953.15 C 639.20 950.44 628.91 946.59 618.43 943.36 C 607.53 940.30 597.70 934.53 587.31 930.18 C 577.18 925.94 567.95 919.94 558.12 915.08 C 555.56 913.66 552.71 912.58 550.60 910.51 C 547.94 907.49 544.47 905.27 540.78 903.75 C 515.32 891.01 491.46 874.84 471.00 855.00 C 452.44 836.67 436.91 815.15 426.09 791.36 C 415.55 768.20 409.22 743.20 406.52 717.96 C 406.68 714.92 405.37 712.07 405.53 709.04 C 405.59 705.35 405.47 701.66 404.67 698.06 C 404.49 687.36 404.64 676.65 404.60 665.95 C 404.51 664.05 405.02 662.23 405.31 660.39 C 405.83 655.57 404.95 650.64 406.36 645.94 C 406.22 641.68 407.24 637.57 407.61 633.36 C 412.55 603.38 423.10 574.68 435.18 546.91 C 453.06 506.80 474.58 468.40 498.12 431.35 C 517.84 400.52 538.90 370.47 562.29 342.30 C 585.00 314.66 605.99 285.66 627.14 256.83 C 627.17 255.99 627.20 255.15 627.22 254.32 C 625.67 252.97 623.94 251.60 623.46 249.49 C 620.72 241.43 619.27 232.99 617.20 224.76 C 615.32 220.86 615.77 216.36 613.92 212.42 C 607.04 211.67 600.51 214.12 593.80 215.08 C 554.38 222.83 514.93 230.46 475.55 238.41 C 470.78 239.39 465.78 239.73 461.34 241.88 C 445.69 250.74 431.75 262.50 420.18 276.25 C 410.01 288.63 402.38 303.25 399.20 319.02 C 397.94 323.14 398.69 327.50 398.19 331.71 C 396.66 336.53 390.82 335.84 386.85 336.84 C 382.36 338.18 377.71 338.97 373.04 338.12 C 374.40 337.53 375.69 336.79 377.01 336.10 C 375.22 333.25 377.34 330.13 377.02 327.07 C 377.01 278.05 377.14 229.03 377.14 180.01 C 377.06 177.96 378.07 176.06 378.01 174.02 C 378.03 154.11 377.96 134.19 378.15 114.29 C 379.67 112.57 382.22 112.96 384.25 112.28 C 388.13 112.09 391.87 111.03 395.75 110.83 C 399.50 109.64 403.52 110.50 407.27 109.29 C 417.20 107.89 427.12 106.43 437.04 105.12 C 448.07 104.16 458.93 101.48 469.99 101.01 C 493.32 97.56 516.72 94.65 540.05 91.11 C 563.85 88.02 587.66 84.94 611.43 81.47 C 651.31 76.04 691.19 70.85 731.04 65.10 C 754.86 62.17 778.64 58.74 802.43 55.47 C 830.31 51.53 858.25 48.12 886.10 44.15 C 893.03 44.00 899.97 44.01 906.90 44.15 C 911.69 45.27 916.69 45.00 921.40 46.67 C 927.84 47.47 933.61 50.67 939.55 53.09 C 931.61 46.53 921.94 42.00 911.78 40.26 C 907.60 38.79 903.13 39.29 898.90 38.15 C 892.27 37.99 885.63 38.02 879.00 38.10 C 830.60 44.51 782.13 51.12 733.76 57.84 C 723.11 58.76 712.61 60.86 702.00 62.06 C 691.11 63.34 680.31 65.35 669.41 66.45 C 655.99 68.91 642.41 69.86 628.96 72.02 C 598.10 76.06 567.31 80.81 536.42 84.46 C 516.60 87.58 496.70 89.98 476.88 92.94 C 470.55 93.42 464.38 95.21 458.01 95.10 C 444.83 97.01 431.65 99.04 418.42 100.45 C 403.86 103.01 389.18 104.36 374.58 106.63 C 373.01 107.10 370.07 106.86 370.09 109.13 C 369.98 128.75 370.03 148.38 370.01 168.01 C 370.08 170.06 369.06 171.96 369.14 174.01 C 369.13 223.68 369.01 273.36 369.00 323.03 C 369.13 325.36 367.47 327.68 368.90 329.88 C 368.42 330.35 367.46 331.30 366.98 331.77 C 357.37 326.29 347.57 321.13 337.87 315.80 C 335.60 314.07 331.20 313.52 331.24 310.10 C 331.18 239.07 331.64 168.04 331.52 97.01 C 331.68 93.43 330.38 88.91 334.14 86.73 C 349.87 85.20 365.47 82.43 381.16 80.53 C 411.99 76.37 442.80 72.05 473.63 67.97 C 480.82 66.60 488.16 66.45 495.30 64.74 C 503.29 64.17 511.17 62.73 519.10 61.61 C 524.75 61.55 530.19 59.74 535.83 59.46 C 572.24 54.47 608.63 49.51 645.04 44.55 C 653.80 43.69 662.45 41.54 671.29 41.42 C 671.43 41.03 671.72 40.27 671.87 39.89 C 675.26 39.80 678.66 39.67 682.06 39.54 C 724.96 33.68 767.85 27.77 810.76 22.02 M 943.77 46.58 C 944.10 49.34 946.74 50.72 948.29 52.78 C 954.85 61.32 958.82 72.17 958.11 82.99 C 958.52 93.03 955.46 102.71 953.28 112.38 C 951.97 116.71 949.45 120.54 947.59 124.64 C 942.98 134.18 937.88 143.48 932.62 152.64 C 928.83 157.90 925.20 163.30 922.03 168.96 C 925.00 181.13 928.57 193.14 931.88 205.21 C 932.95 213.51 935.41 221.93 933.32 230.28 C 930.87 251.54 918.89 271.11 901.93 283.95 C 893.16 290.79 882.85 295.92 871.90 297.99 C 867.44 297.73 863.09 300.12 858.74 298.29 C 852.04 298.19 845.54 296.40 839.44 293.76 C 839.89 294.28 840.79 295.32 841.24 295.85 C 848.59 301.22 857.65 304.07 866.74 304.29 C 871.09 306.12 875.44 303.73 879.90 303.99 C 899.37 300.24 916.11 287.39 927.68 271.65 C 934.89 261.15 939.85 248.97 941.32 236.28 C 943.34 228.23 941.11 220.08 940.01 212.08 C 937.20 200.74 933.59 189.59 930.87 178.21 C 929.93 175.28 929.83 172.17 930.10 169.13 C 930.72 166.72 932.73 165.09 934.24 163.23 C 940.72 153.84 947.15 144.38 952.23 134.17 C 953.49 130.04 956.66 126.79 957.55 122.55 C 959.47 119.44 960.26 115.82 961.48 112.41 C 964.96 102.68 966.78 92.33 966.08 81.98 C 964.40 71.75 960.07 61.62 952.25 54.54 C 951.14 52.29 953.32 51.23 955.12 50.55 C 955.26 49.82 955.55 48.35 955.70 47.61 C 953.39 45.96 950.80 46.96 948.24 47.06 C 949.01 46.61 950.54 45.73 951.31 45.29 C 950.40 44.84 948.58 43.96 947.68 43.51 C 946.54 44.74 945.09 45.59 943.77 46.58 M 957.35 52.13 C 956.78 54.31 961.63 52.68 959.08 51.65 C 958.65 51.77 957.79 52.01 957.35 52.13 M 646.62 203.79 C 646.71 204.49 646.81 205.20 646.92 205.91 C 651.48 206.35 655.06 209.44 658.96 211.53 C 661.35 207.66 663.91 203.90 666.45 200.13 C 665.26 201.01 663.91 201.57 662.45 201.73 C 657.19 202.65 652.00 204.00 646.62 203.79 M 709.60 200.69 C 711.34 202.81 714.08 204.70 713.20 207.86 C 702.99 221.85 693.77 236.55 683.69 250.65 C 674.04 264.02 664.79 277.70 654.85 290.85 C 642.51 307.77 630.15 324.68 617.11 341.07 C 607.47 354.03 596.71 366.08 586.86 378.87 C 563.05 409.01 542.17 441.31 522.05 474.01 C 515.78 484.18 510.15 494.72 504.09 505.02 C 501.59 510.71 497.68 515.66 495.64 521.57 C 491.61 528.09 488.84 535.30 484.94 541.89 C 480.48 551.50 475.76 560.99 471.92 570.87 C 466.94 581.02 462.89 591.62 459.47 602.40 C 455.60 614.42 450.89 626.25 448.85 638.76 C 446.86 647.77 445.36 656.88 444.12 666.00 C 444.17 669.40 444.00 672.79 443.21 676.11 C 442.99 688.40 442.98 700.70 443.04 713.00 C 443.28 720.02 442.58 727.13 444.03 734.04 C 445.49 745.59 446.38 757.30 449.47 768.58 C 453.91 788.88 460.94 808.72 471.26 826.80 C 476.93 838.25 485.03 848.25 492.38 858.62 C 496.95 862.77 500.29 867.99 504.85 872.14 C 509.45 876.54 513.55 881.51 518.75 885.23 C 522.78 889.28 527.34 892.77 532.36 895.50 C 523.07 889.38 515.64 881.01 507.95 873.09 C 505.67 869.45 502.16 866.87 499.51 863.55 C 496.03 858.10 491.73 853.23 488.29 847.75 C 481.61 838.34 476.57 827.93 471.42 817.64 C 468.59 811.29 466.56 804.63 463.80 798.26 C 460.53 787.83 458.07 777.20 455.48 766.59 C 453.89 755.74 452.59 744.85 451.17 733.99 C 451.05 716.42 450.79 698.82 451.31 681.26 C 452.72 676.86 451.44 672.15 452.83 667.75 C 453.88 657.74 456.32 647.95 458.16 638.06 C 460.34 629.01 463.59 620.25 466.46 611.40 C 468.78 604.73 470.72 597.94 473.51 591.45 C 482.71 569.50 492.47 547.75 503.95 526.88 C 505.70 521.66 509.21 517.35 511.42 512.36 C 513.41 508.14 516.28 504.41 518.29 500.21 C 528.52 481.77 539.96 464.03 551.30 446.27 C 555.00 441.21 557.71 435.51 561.69 430.66 C 576.02 409.29 591.30 388.52 607.84 368.83 C 619.79 354.07 631.61 339.17 642.85 323.86 C 650.65 314.22 657.34 303.73 665.07 294.06 C 675.36 279.66 685.62 265.25 695.80 250.78 C 703.96 239.22 711.44 227.21 719.83 215.82 C 721.48 214.49 721.51 212.25 720.93 210.39 C 717.64 206.63 714.09 203.01 709.60 200.69 M 894.61 204.53 C 889.69 210.31 885.37 216.56 880.59 222.45 C 868.12 238.68 855.24 254.58 842.61 270.68 C 840.84 272.96 839.91 275.72 838.64 278.27 C 846.07 277.47 852.34 273.17 858.85 269.90 C 859.95 269.36 860.37 268.07 861.18 267.20 C 861.77 267.04 862.93 266.73 863.52 266.57 C 873.90 258.59 882.83 248.62 888.89 236.96 C 894.25 225.85 897.70 213.55 896.70 201.14 C 896.07 202.31 895.48 203.52 894.61 204.53 M 811.32 311.34 C 801.25 324.26 790.90 336.96 781.09 350.09 C 765.50 369.67 751.05 390.09 736.39 410.36 C 725.35 425.38 714.66 440.64 703.90 455.85 C 696.02 467.60 687.33 478.82 679.90 490.85 C 668.52 506.38 659.47 523.45 650.43 540.40 C 642.61 556.20 637.99 573.48 636.13 590.96 C 636.36 597.68 635.40 604.52 636.95 611.13 C 637.76 616.18 637.71 621.47 639.88 626.19 C 642.09 635.95 646.83 644.79 651.49 653.55 C 655.51 659.74 660.54 665.19 664.95 671.09 C 667.13 673.87 670.28 675.61 672.93 677.90 C 670.68 672.94 666.26 669.32 663.25 664.79 C 658.75 659.54 656.27 653.02 653.07 646.97 C 649.97 641.17 648.97 634.56 646.47 628.54 C 645.76 623.32 645.13 618.08 644.19 612.90 C 644.03 606.97 644.08 601.03 644.21 595.10 C 645.57 586.99 646.82 578.84 648.97 570.89 C 652.69 558.93 657.38 547.26 663.27 536.21 C 668.29 526.20 674.62 516.96 680.49 507.46 C 683.49 502.51 687.42 498.20 690.16 493.09 C 725.26 442.17 761.61 392.11 798.50 342.46 C 801.89 337.57 805.42 332.77 809.25 328.22 C 813.09 322.76 816.93 317.29 820.95 311.94 C 826.16 306.06 830.00 299.13 835.18 293.22 C 836.01 293.15 837.66 293.00 838.48 292.93 C 835.59 291.65 833.00 289.89 830.78 287.65 C 823.80 295.11 818.04 303.65 811.32 311.34 M 882.67 445.60 C 869.18 446.80 856.25 453.17 846.38 462.45 C 831.78 475.82 823.03 494.69 819.83 514.04 C 819.59 517.42 818.33 520.81 818.99 524.20 C 816.60 527.54 818.11 532.11 817.84 536.00 C 819.35 538.47 818.39 541.46 819.23 544.15 C 821.67 563.79 829.61 583.15 843.66 597.35 C 847.52 600.37 851.25 603.58 854.99 606.76 C 860.98 610.97 867.86 613.85 874.97 615.54 C 880.49 617.19 886.35 616.48 892.04 616.55 C 903.24 616.00 913.15 610.14 922.40 604.32 C 940.81 590.21 951.21 567.71 954.46 545.14 C 954.43 542.07 954.86 539.05 955.33 536.04 C 955.93 517.11 951.93 497.79 942.38 481.29 C 936.51 471.49 929.13 462.13 919.01 456.49 C 911.81 450.76 903.02 447.27 893.95 446.02 C 891.61 444.50 888.69 447.60 887.00 444.75 C 885.91 446.46 884.28 446.19 882.67 445.60 M 618.03 641.30 C 617.57 648.57 617.27 655.87 615.68 662.99 C 615.44 675.28 615.41 687.58 615.57 699.87 C 616.86 709.30 617.21 718.85 619.27 728.19 C 624.60 757.02 636.76 785.35 657.71 806.29 C 660.47 808.84 663.64 810.92 666.21 813.68 C 667.05 813.67 668.75 813.65 669.59 813.65 C 669.23 814.26 668.51 815.48 668.15 816.09 C 669.10 816.49 670.05 816.90 671.00 817.34 C 670.56 816.62 669.67 815.20 669.22 814.48 C 680.35 818.86 692.28 820.14 704.00 821.85 C 707.81 822.16 711.77 821.15 715.45 822.54 C 717.66 823.44 719.90 822.41 722.01 821.73 C 723.59 822.02 725.11 823.25 726.78 822.76 C 732.72 820.58 739.21 822.98 745.26 821.18 C 771.67 818.22 797.43 809.82 820.36 796.35 C 821.79 795.38 823.62 794.83 824.45 793.19 C 828.48 792.15 831.24 788.74 834.75 786.70 C 838.65 784.36 841.46 780.68 845.28 778.24 C 859.61 766.47 870.88 751.56 881.27 736.34 C 886.55 727.16 891.70 717.89 896.21 708.29 C 889.47 708.51 883.71 712.62 877.28 714.25 C 865.96 717.44 854.79 721.39 843.16 723.24 C 835.06 723.69 827.19 726.24 819.00 725.71 C 804.86 725.43 790.56 726.46 776.63 723.55 C 753.56 719.90 730.95 712.90 709.94 702.64 C 702.66 698.74 695.32 694.94 688.05 691.03 C 684.61 688.19 682.20 683.23 677.18 683.03 C 671.01 680.54 665.48 676.73 659.55 673.76 C 645.54 666.34 632.93 656.38 622.54 644.40 C 621.75 643.18 621.74 641.71 621.58 640.34 C 621.06 639.91 620.55 639.48 620.05 639.06 C 619.37 639.80 618.69 640.54 618.03 641.30 M 953.36 677.30 C 951.64 678.56 949.43 679.37 948.41 681.36 C 947.23 686.09 946.45 690.96 944.53 695.48 C 942.19 705.13 937.81 714.09 934.47 723.41 C 930.20 733.73 924.71 743.50 919.30 753.26 C 914.65 759.63 910.43 766.31 905.52 772.49 C 900.17 780.04 893.34 786.31 886.85 792.85 C 858.77 819.26 821.56 835.17 783.43 839.47 C 779.33 840.57 774.99 839.62 770.92 840.97 C 761.94 840.87 752.82 841.81 743.97 840.12 C 740.28 840.34 736.78 839.09 733.13 838.95 C 716.31 835.90 699.40 831.77 684.17 823.86 C 680.67 821.50 676.52 820.50 672.84 818.53 C 681.73 824.94 691.79 829.64 701.67 834.38 C 718.66 840.73 736.52 845.05 754.57 846.46 C 758.94 847.62 763.53 846.85 768.00 847.08 C 772.74 846.85 777.62 847.67 782.24 846.26 C 795.29 845.80 808.13 842.97 820.82 839.88 C 837.55 834.83 854.08 828.43 868.72 818.76 C 883.56 810.13 896.05 798.16 907.79 785.77 C 913.27 778.86 918.75 771.93 923.52 764.49 C 926.49 760.92 928.80 756.89 930.79 752.72 C 938.72 739.77 944.03 725.52 949.48 711.41 C 953.82 698.59 957.23 685.48 960.22 672.29 C 957.76 673.72 955.82 675.87 953.36 677.30 M 673.19 678.10 C 673.81 678.75 673.81 678.75 673.19 678.10 M 677.16 681.21 C 677.81 681.86 677.81 681.86 677.16 681.21 Z" />
<path fill="#ffffff" opacity="1.00" d=" M 151.31 81.30 C 202.86 63.49 254.44 45.75 306.00 27.97 C 306.00 44.93 306.00 61.89 306.00 78.86 C 266.02 92.00 226.00 105.04 186.04 118.22 C 225.96 131.68 266.01 144.78 306.00 158.06 C 306.00 173.14 306.00 188.21 306.00 203.28 C 254.25 185.45 202.51 167.61 150.77 149.78 C 149.32 149.11 147.83 150.15 146.43 150.47 C 98.30 166.95 50.15 183.35 2.00 199.77 C 2.01 183.09 1.98 166.41 2.02 149.73 C 39.28 137.68 76.51 125.57 113.76 113.47 C 76.56 100.90 39.25 88.67 2.00 76.24 C 2.01 61.32 1.98 46.41 2.02 31.49 C 50.83 48.11 99.63 64.80 148.44 81.43 C 149.41 81.79 150.36 81.75 151.31 81.30 Z" />
<path fill="#ffffff" opacity="1.00" d=" M 2.00 227.49 C 103.33 227.50 204.67 227.50 306.00 227.49 C 306.00 242.66 306.00 257.83 306.00 273.00 C 249.00 273.00 192.00 273.00 135.00 273.00 C 119.77 273.18 104.51 272.60 89.29 273.36 L 89.29 273.62 C 95.04 273.82 100.70 274.92 106.38 275.76 C 172.91 285.93 239.44 296.15 305.98 306.30 C 306.02 321.55 306.00 336.80 305.99 352.05 C 242.00 362.77 178.00 373.48 114.01 384.21 C 106.88 385.38 99.77 386.70 92.60 387.60 C 96.71 388.15 100.86 387.98 105.00 388.00 C 172.00 388.00 239.00 388.00 306.00 388.00 C 306.00 402.00 306.00 416.00 306.00 430.00 C 204.67 430.00 103.33 430.00 2.00 430.00 C 2.00 407.65 2.00 385.30 2.00 362.96 C 73.75 351.15 145.49 339.26 217.26 327.52 C 190.75 323.14 164.15 319.37 137.61 315.22 C 92.41 308.34 47.22 301.41 2.01 294.55 C 1.98 272.20 2.01 249.84 2.00 227.49 Z" />
<path fill="#ffffff" opacity="1.00" d=" M 23.03 477.05 C 37.65 465.56 56.79 461.76 75.01 461.75 C 121.01 461.74 167.00 461.75 213.00 461.75 C 231.01 461.69 249.53 461.01 266.78 467.12 C 281.31 471.91 294.22 482.13 300.96 496.02 C 309.04 512.45 310.18 531.47 308.12 549.41 C 306.04 566.52 297.87 583.47 283.42 593.45 C 266.55 605.43 245.05 607.57 224.94 607.00 C 224.94 591.83 224.92 576.66 224.95 561.49 C 235.73 561.35 247.71 562.64 257.06 556.11 C 265.47 550.13 266.58 538.50 264.83 529.11 C 263.73 522.18 258.81 516.17 252.25 513.70 C 243.01 509.90 232.82 509.99 223.00 510.00 C 206.49 510.01 189.98 509.98 173.47 510.01 C 182.29 514.54 190.27 521.27 194.70 530.29 C 200.89 542.83 201.33 557.70 197.88 571.08 C 194.58 583.91 184.99 594.57 173.04 600.04 C 155.63 608.38 135.86 608.21 117.00 608.00 C 101.66 607.95 86.31 608.10 70.97 607.92 C 52.53 607.39 33.21 602.48 19.42 589.61 C 8.33 579.50 2.21 565.02 0.00 550.38 L 0.00 519.62 C 2.25 503.31 9.78 487.24 23.03 477.05 M 63.41 510.67 C 55.63 511.71 47.58 515.97 44.81 523.74 C 42.02 531.78 42.09 541.24 46.18 548.83 C 50.76 556.83 60.62 559.34 69.22 559.65 C 85.81 559.87 102.41 559.69 119.00 559.75 C 127.51 559.73 136.47 560.21 144.38 556.48 C 150.33 553.93 154.60 548.25 155.78 541.93 C 157.35 533.63 156.63 523.89 150.49 517.50 C 144.65 511.65 135.96 510.21 128.03 510.03 C 112.69 509.96 97.34 510.02 82.00 510.00 C 75.80 510.07 69.56 509.69 63.41 510.67 Z" />
<path fill="#ffffff" opacity="1.00" d=" M 19.55 650.57 C 32.70 637.97 51.18 632.69 69.01 631.90 C 84.09 631.56 99.59 631.11 114.09 635.99 C 127.27 640.11 138.84 649.20 145.50 661.36 C 152.92 647.99 166.37 638.79 181.05 635.09 C 196.65 630.70 212.99 631.93 229.00 631.74 C 240.73 631.58 252.62 632.57 263.82 636.26 C 276.76 640.38 288.59 648.46 296.27 659.75 C 305.95 673.77 309.19 691.23 309.01 708.00 C 308.94 725.28 305.02 743.30 294.15 757.13 C 285.00 768.98 271.15 776.50 256.69 779.71 C 242.38 783.15 227.57 782.07 213.00 782.25 C 200.93 782.41 188.68 781.56 177.16 777.74 C 163.97 773.64 152.31 764.74 145.49 752.65 C 140.43 761.84 132.76 769.63 123.33 774.31 C 108.80 781.82 92.03 782.56 76.01 782.25 C 56.82 782.42 36.50 778.19 21.65 765.33 C 9.20 754.83 2.53 739.09 0.00 723.30 L 0.00 690.74 C 2.41 675.86 8.35 661.03 19.55 650.57 M 66.44 680.72 C 60.66 681.61 54.76 683.34 50.22 687.18 C 44.44 691.95 42.37 699.78 42.49 707.01 C 42.32 714.70 44.81 723.10 51.36 727.72 C 59.91 733.78 70.92 734.04 81.00 734.00 C 91.96 733.79 103.69 735.17 113.76 729.87 C 120.48 726.52 124.46 719.31 125.19 712.01 C 126.24 703.28 124.81 693.23 117.88 687.12 C 110.55 680.76 100.29 679.89 91.00 680.00 C 82.81 680.13 74.58 679.58 66.44 680.72 M 193.43 680.69 C 184.63 681.84 175.19 686.01 171.47 694.62 C 167.73 703.48 168.01 714.45 173.30 722.64 C 178.78 730.51 188.82 733.18 197.90 733.79 C 208.26 734.23 218.63 733.89 229.00 734.00 C 238.25 734.01 248.20 733.42 256.12 728.11 C 262.39 723.95 265.30 716.27 265.47 708.98 C 265.96 700.93 263.93 691.90 257.15 686.83 C 247.96 680.07 235.93 679.94 225.00 680.00 C 214.48 680.24 203.90 679.41 193.43 680.69 Z" />
<path fill="#ffffff" opacity="1.00" d=" M 1.95 808.51 C 14.97 808.48 28.00 808.52 41.02 808.48 C 42.62 808.45 44.23 808.57 45.78 809.03 C 132.51 832.48 219.23 855.97 305.97 879.36 C 306.03 895.45 306.00 911.54 305.99 927.63 C 219.16 904.16 132.35 880.64 45.52 857.18 C 45.48 889.12 45.51 921.06 45.51 953.00 C 30.98 953.00 16.46 953.00 1.94 953.00 C 1.95 904.83 1.92 856.67 1.95 808.51 Z" />
</g>
</svg>
